<svg xmlns="http://www.w3.org/2000/svg" viewBox="0 0 768 768">
    <title>Chess.com</title>
    <path d="M18,715.365h450v-90h-450v90zM368.685,194.415l20.91,11.085c47.82-65.43,91.755-47.775,91.755-47.775l-32.43,79.5,53.46,28.5,4.305,49.5,96.63,163.125-65.325,44.055s-40.23-54.585-59.475-65.49c-15.99-9-61.83-15.375-84.255-18l-101.31-115.365-18,15.84,55.725,63.465c-0.195,0.27-0.375,0.555-0.57,0.855-53.67,87.255,34.5,158.535,102.735,197.67H126.21C139.5,127.5,441.9,194.415,441.9,194.415z" stroke-width="6"/>
</svg>