<?xml version="1.0" encoding="UTF-8"?>
<svg xmlns="http://www.w3.org/2000/svg" xmlns:xlink="http://www.w3.org/1999/xlink" width="75px" height="75px" viewBox="0 0 75 75" version="1.1">
<g id="surface1">
<path style=" stroke:none;fill-rule:nonzero;fill:rgb(0%,0%,0%);fill-opacity:1;" d="M 22.375 8.398438 C 19.949219 8.875 18.800781 9.226562 16.75 10.050781 C 13.75 11.273438 12.824219 11.773438 10.5 13.398438 C 7.726562 15.351562 4.949219 18.5 2.75 22.25 C 1.800781 23.851562 0.25 28.476562 0.25 29.675781 C 0.25 31.125 0.675781 30.425781 1.851562 26.976562 C 2.949219 23.824219 3.726562 22.300781 5.625 19.625 C 6.875 17.851562 9.851562 14.976562 11.625 13.800781 L 12.875 12.976562 L 13 14.425781 C 13.074219 15.375 13.324219 16.148438 13.699219 16.675781 C 14.398438 17.675781 16.75 18.851562 18.148438 18.898438 C 18.726562 18.925781 19.324219 19.023438 19.476562 19.101562 C 19.75 19.273438 21.300781 19.101562 22 18.800781 C 22.199219 18.726562 22.648438 18.625 23 18.601562 C 23.523438 18.550781 23.476562 18.625 22.648438 19.074219 C 17.773438 21.824219 14.125 24.898438 11.449219 28.5 C 9.726562 30.824219 9.023438 32.226562 8.050781 35.25 C 6.976562 38.675781 6.648438 41.476562 6.800781 46.675781 L 6.925781 51.125 L 6.300781 50.351562 C 4.726562 48.375 2.976562 44.824219 1.699219 40.898438 C 0.398438 36.949219 0.375 36.898438 0.300781 38.148438 C 0.226562 39.5 1.273438 43.273438 2.351562 45.5 C 3.476562 47.824219 5.523438 51.175781 6.800781 52.75 C 8.550781 54.898438 10.550781 56.75 11.148438 56.726562 C 11.5 56.726562 11.523438 56.675781 11.25 56.574219 C 10.550781 56.300781 9.226562 54.75 8.726562 53.625 C 8.125 52.273438 7.5 47.925781 7.5 45.050781 C 7.5 40.398438 8.726562 34.898438 10.550781 31.574219 C 11.675781 29.476562 14.300781 26.226562 15.851562 24.925781 C 16.550781 24.351562 17.175781 23.824219 17.25 23.75 C 17.773438 23.175781 21.226562 21.023438 22.726562 20.324219 C 25.074219 19.25 30 17.601562 31.574219 17.375 C 32.226562 17.273438 32.75 17.125 32.75 17.023438 C 32.75 16.949219 34.199219 16.851562 35.949219 16.800781 C 39.375 16.726562 43.125 17.101562 44.476562 17.648438 C 45.226562 17.949219 45.273438 17.949219 45 17.625 C 44.824219 17.425781 44.523438 17.25 44.351562 17.25 C 44.148438 17.25 43.351562 17.023438 42.550781 16.75 C 41.050781 16.199219 40.101562 15.976562 36.625 15.226562 C 33.949219 14.648438 33.050781 14.523438 30.851562 14.523438 C 28 14.5 26.398438 14.949219 24.824219 16.25 C 22.726562 18 19.398438 18.523438 16.675781 17.5 C 14.824219 16.800781 13.925781 15.824219 13.925781 14.5 C 13.925781 13.625 14.101562 13.300781 15.023438 12.351562 C 16.300781 11.050781 20.050781 9.125 21.75 8.898438 C 22.851562 8.75 24.125 8.226562 23.25 8.273438 C 23.050781 8.300781 22.648438 8.351562 22.375 8.398438 Z M 30.125 15.550781 C 29.976562 16.273438 28.75 17.550781 28.75 16.949219 C 28.75 16.726562 28.574219 16.476562 28.351562 16.398438 C 28.050781 16.273438 27.976562 16.351562 28.101562 16.648438 C 28.199219 16.898438 28.148438 17 27.949219 16.925781 C 27.773438 16.875 27.648438 16.675781 27.699219 16.523438 C 27.726562 16.351562 27.648438 16.273438 27.5 16.375 C 27.148438 16.601562 27.175781 16.898438 27.625 17.351562 C 27.824219 17.550781 27.898438 17.773438 27.773438 17.851562 C 27.648438 17.925781 27.425781 17.824219 27.25 17.625 C 27.023438 17.351562 26.824219 17.324219 26.476562 17.523438 C 26.199219 17.648438 26.050781 17.898438 26.148438 18.050781 C 26.25 18.199219 26.125 18.25 25.773438 18.125 C 25.375 18 25.101562 18.101562 24.875 18.425781 C 24.675781 18.675781 24.5 18.75 24.5 18.574219 C 24.5 18.398438 24.351562 18.324219 24.148438 18.398438 C 23.949219 18.476562 23.726562 18.425781 23.648438 18.273438 C 23.550781 18.125 23.773438 17.949219 24.125 17.851562 C 24.476562 17.773438 24.875 17.5 25 17.273438 C 25.199219 16.925781 25.273438 16.925781 25.5 17.25 C 25.699219 17.574219 25.75 17.574219 25.75 17.175781 C 25.75 16.949219 25.949219 16.75 26.199219 16.75 C 26.550781 16.75 26.574219 16.699219 26.25 16.5 C 25.949219 16.300781 25.976562 16.25 26.425781 16.25 C 26.726562 16.25 27.023438 16.148438 27.101562 16.023438 C 27.175781 15.925781 27.523438 15.875 27.875 15.925781 C 28.75 16.101562 29.75 15.800781 29.75 15.375 C 29.75 15.175781 29.851562 15 29.976562 15 C 30.125 15 30.175781 15.25 30.125 15.550781 Z M 31.625 15.75 C 31.75 15.949219 31.898438 15.925781 32.125 15.75 C 32.5 15.425781 33 15.601562 33 16.050781 C 33 16.175781 32.824219 16.25 32.648438 16.175781 C 32.375 16.074219 32.324219 16.148438 32.425781 16.449219 C 32.574219 16.851562 32.550781 16.851562 32.148438 16.425781 C 31.398438 15.699219 30.574219 15.898438 30.726562 16.800781 C 30.726562 16.925781 30.648438 17 30.5 17 C 30.148438 17 30.199219 16.699219 30.648438 16.050781 C 31.074219 15.449219 31.375 15.351562 31.625 15.75 Z M 31.625 15.75 "/>
<path style=" stroke:none;fill-rule:nonzero;fill:rgb(0%,0%,0%);fill-opacity:1;" d="M 33.300781 18.398438 C 30.5 18.851562 25.550781 20.300781 24 21.148438 C 21.875 22.300781 18.925781 24.699219 18.25 25.800781 C 17.898438 26.398438 17.398438 27.773438 17.175781 28.851562 C 16.925781 29.949219 16.5 31.199219 16.226562 31.648438 C 15.550781 32.75 13.574219 34.375 12.300781 34.898438 C 10.949219 35.425781 10.175781 36.699219 9.351562 39.675781 C 7.550781 46.226562 8.925781 53.574219 12.675781 57.351562 C 17.324219 62.023438 28.976562 67.25 34.875 67.300781 C 36.875 67.324219 39.25 66.550781 39.851562 65.699219 C 40.199219 65.199219 40.25 65.199219 41.25 65.601562 C 42.648438 66.148438 42.875 66.125 44.875 65.125 C 46 64.574219 47.25 64.175781 48.375 64 C 49.449219 63.851562 50.648438 63.476562 51.601562 63 C 52.398438 62.550781 53.726562 62.023438 54.476562 61.773438 C 56.574219 61.125 59.425781 59.351562 61.148438 57.648438 C 63.550781 55.226562 65.351562 51.5 66.023438 47.425781 C 66.425781 45 66.074219 42.175781 65 39.25 C 64.101562 36.800781 63.199219 35.023438 63.074219 35.425781 C 63.023438 35.574219 63.199219 36.148438 63.476562 36.675781 C 64.25 38.226562 65 41.75 65 43.925781 C 65 46.601562 64 50.175781 62.949219 51.300781 C 62.773438 51.476562 62.175781 52.300781 61.625 53.125 C 60.351562 55.050781 58.550781 56.726562 57 57.449219 C 56.523438 57.675781 55.976562 58.050781 55.800781 58.324219 C 55.601562 58.574219 55.324219 58.726562 55.175781 58.675781 C 55.023438 58.625 54.648438 58.800781 54.398438 59.050781 C 54.125 59.300781 53.75 59.449219 53.601562 59.398438 C 53.425781 59.324219 53.226562 59.449219 53.148438 59.648438 C 53.074219 59.851562 52.851562 60 52.648438 60 C 52.449219 60 51.976562 60.175781 51.574219 60.351562 C 51.199219 60.550781 50.675781 60.773438 50.425781 60.851562 C 50.199219 60.925781 49.875 61.273438 49.75 61.625 C 49.550781 62.175781 49.398438 62.226562 48.523438 62.148438 C 47.851562 62.074219 47.5 62.148438 47.398438 62.398438 C 47.300781 62.675781 47.125 62.675781 46.601562 62.5 C 45.851562 62.199219 45.75 62.25 45.648438 62.925781 C 45.574219 63.398438 44.75 63.726562 44.75 63.273438 C 44.75 63.148438 44.523438 63.050781 44.25 63.074219 C 43.625 63.125 43.601562 63.425781 44.199219 63.574219 C 44.425781 63.648438 44.25 63.699219 43.824219 63.726562 C 43.375 63.726562 43 63.875 43 64.023438 C 43 64.226562 42.875 64.226562 42.625 64 C 42.425781 63.824219 42.25 63.773438 42.25 63.875 C 42.25 63.976562 42.074219 63.925781 41.875 63.75 C 41.574219 63.5 41.5 63.5 41.5 63.75 C 41.5 63.949219 41.300781 64 40.875 63.898438 C 40.425781 63.773438 40.074219 63.898438 39.675781 64.25 C 39.199219 64.699219 39.125 64.726562 39.050781 64.375 C 39 64.125 38.800781 64.023438 38.550781 64.101562 C 37.699219 64.375 35 64.449219 34.851562 64.226562 C 34.773438 64.101562 34.601562 64.074219 34.449219 64.148438 C 34.148438 64.351562 32.199219 63.75 31.949219 63.398438 C 31.875 63.273438 31.523438 63.148438 31.199219 63.101562 C 30.476562 63.023438 29.949219 62.898438 29.625 62.726562 C 29.5 62.648438 28.851562 62.425781 28.199219 62.25 C 26.675781 61.851562 23.898438 59.523438 22.398438 57.425781 C 21.175781 55.699219 19.75 53.148438 19.75 52.675781 C 19.75 52.523438 19.574219 52.023438 19.351562 51.625 C 18.824219 50.601562 18.425781 47 18.625 44.925781 C 18.925781 41.824219 20.699219 37.476562 22.675781 35.101562 C 24.449219 32.976562 27.398438 30.699219 29.898438 29.476562 C 34.050781 27.476562 37.824219 27.351562 42.375 29.074219 C 45.550781 30.273438 48.175781 33.175781 48.601562 35.949219 C 48.925781 38.175781 47.425781 40.050781 44.800781 40.625 C 44 40.773438 44 40.824219 44.023438 42.023438 C 44.074219 43.074219 43.976562 43.375 43.375 44 C 41.800781 45.625 39.023438 45.398438 38.050781 43.574219 C 37.75 43.023438 37.875 42.25 38.273438 42.25 C 38.375 42.25 38.425781 42.398438 38.351562 42.601562 C 38.273438 42.773438 38.476562 43.25 38.800781 43.625 C 39.273438 44.148438 39.675781 44.351562 40.648438 44.425781 C 42.148438 44.574219 43.101562 43.949219 43.476562 42.574219 C 44.175781 40.023438 40.949219 38.101562 37.25 38.851562 C 34.050781 39.523438 32 42.5 32.976562 45.074219 C 33.101562 45.398438 33.851562 46.375 34.625 47.226562 C 35.925781 48.625 36.148438 48.75 37.101562 48.75 C 37.75 48.75 38.601562 49.023438 39.476562 49.5 L 40.824219 50.25 L 42.601562 49.375 C 43.574219 48.898438 45 48.351562 45.75 48.148438 C 49.074219 47.25 49.75 46.976562 51.648438 45.726562 C 54.175781 44.050781 55.574219 42.351562 56.101562 40.351562 C 56.324219 39.449219 56.726562 38.675781 57.074219 38.351562 C 57.976562 37.574219 58.375 34.523438 58 31.300781 C 57.773438 29.324219 57.550781 28.523438 56.773438 27 C 56.25 25.976562 55.675781 25.148438 55.523438 25.199219 C 55.351562 25.226562 55.273438 25.148438 55.375 25 C 55.601562 24.648438 53.074219 22.300781 51.375 21.25 C 49.574219 20.175781 46.601562 19.148438 43.449219 18.5 C 40.601562 17.898438 36.75 17.875 33.300781 18.398438 Z M 40.648438 19 C 40.851562 19 40.949219 18.898438 40.875 18.75 C 40.800781 18.625 41.199219 18.675781 41.773438 18.875 C 42.351562 19.101562 43.273438 19.273438 43.800781 19.300781 C 44.601562 19.324219 44.726562 19.398438 44.601562 19.800781 C 44.523438 20.050781 44.574219 20.25 44.726562 20.25 C 44.875 20.25 45 20.023438 45 19.726562 C 45 19.273438 45.050781 19.25 45.375 19.601562 C 45.824219 20.050781 45.875 20.351562 45.449219 20.101562 C 45.199219 19.976562 45.199219 20 45.425781 20.25 C 45.601562 20.449219 45.898438 20.5 46.175781 20.375 C 46.875 20.074219 47.273438 20.023438 47.125 20.25 C 47.050781 20.375 47.199219 20.574219 47.425781 20.726562 C 47.824219 20.949219 47.824219 20.976562 47.324219 21 C 47.023438 21 46.726562 20.851562 46.675781 20.675781 C 46.574219 20.5 46.523438 20.523438 46.523438 20.773438 C 46.5 21.050781 46.75 21.226562 47.25 21.300781 C 48.050781 21.425781 48.398438 21 47.925781 20.5 C 47.699219 20.273438 47.773438 20.273438 48.175781 20.523438 C 48.449219 20.699219 48.648438 20.976562 48.574219 21.148438 C 48.449219 21.523438 49.273438 23.476562 49.550781 23.5 C 49.800781 23.5 49.5 22.726562 49.050781 22.199219 C 48.648438 21.726562 48.800781 21 49.300781 21.023438 C 49.550781 21.023438 49.550781 21.074219 49.324219 21.175781 C 48.699219 21.398438 49 21.648438 49.824219 21.574219 C 50.25 21.523438 50.476562 21.574219 50.324219 21.648438 C 50.148438 21.726562 50 21.976562 50 22.175781 C 50 22.5 50.074219 22.5 50.375 22.25 C 50.699219 22 50.851562 22 51.199219 22.351562 C 51.449219 22.574219 51.824219 22.75 52.023438 22.773438 C 52.226562 22.773438 52.175781 22.875 51.875 23 C 51.425781 23.199219 51.425781 23.226562 51.824219 23.226562 C 52.074219 23.25 52.324219 23.425781 52.425781 23.625 C 52.550781 23.976562 52.601562 23.976562 52.976562 23.648438 C 53.324219 23.324219 53.398438 23.351562 53.675781 23.898438 C 53.898438 24.398438 53.875 24.5 53.574219 24.5 C 53.375 24.5 53.300781 24.375 53.375 24.25 C 53.550781 23.949219 53.25 23.925781 52.851562 24.199219 C 52.601562 24.351562 52.449219 25.25 52.675781 25.25 C 52.726562 25.25 52.976562 25.101562 53.25 24.949219 C 53.925781 24.523438 54.601562 24.949219 54.699219 25.851562 C 54.800781 26.574219 54.699219 26.625 54.023438 26.199219 C 53.648438 25.976562 53.425781 26 52.898438 26.324219 C 52.550781 26.574219 52.25 26.949219 52.25 27.148438 C 52.25 27.425781 52.101562 27.5 51.851562 27.398438 C 51.648438 27.324219 51.550781 27.351562 51.625 27.5 C 51.699219 27.648438 51.949219 27.75 52.148438 27.75 C 52.351562 27.75 52.5 27.925781 52.5 28.148438 C 52.5 28.351562 52.601562 28.476562 52.726562 28.375 C 52.851562 28.300781 52.898438 27.875 52.824219 27.398438 C 52.726562 26.699219 52.773438 26.550781 53.226562 26.425781 C 53.523438 26.351562 53.75 26.398438 53.75 26.550781 C 53.75 26.675781 53.851562 26.726562 53.976562 26.625 C 54.101562 26.550781 54.273438 26.601562 54.351562 26.726562 C 54.425781 26.851562 54.324219 27 54.125 27.101562 C 53.925781 27.175781 53.75 27.351562 53.75 27.476562 C 53.75 27.625 53.925781 27.648438 54.175781 27.574219 C 54.425781 27.476562 54.523438 27.523438 54.398438 27.699219 C 54.324219 27.851562 54.351562 28.023438 54.476562 28.101562 C 54.601562 28.199219 54.800781 28.125 54.898438 27.976562 C 54.976562 27.824219 54.898438 27.601562 54.726562 27.476562 C 54.425781 27.300781 54.449219 27.199219 54.824219 26.824219 C 55.226562 26.425781 55.25 26.425781 55.25 26.824219 C 55.25 27.074219 55.449219 27.25 55.75 27.25 C 56.023438 27.25 56.25 27.375 56.25 27.523438 C 56.25 27.648438 56.125 27.699219 55.976562 27.601562 C 55.773438 27.5 55.75 27.625 55.898438 28.023438 C 56 28.351562 56.074219 28.75 56.074219 28.925781 C 56.074219 29.101562 56.175781 29.175781 56.300781 29.101562 C 56.425781 29 56.476562 28.773438 56.375 28.574219 C 56.273438 28.25 56.300781 28.226562 56.625 28.5 C 56.898438 28.726562 56.925781 28.898438 56.75 29.125 C 56.550781 29.351562 56.574219 29.5 56.800781 29.601562 C 56.976562 29.675781 56.824219 29.699219 56.449219 29.648438 C 55.574219 29.550781 55.523438 29.925781 56.375 30.148438 C 56.726562 30.226562 57 30.425781 57 30.550781 C 57 30.675781 56.851562 30.75 56.699219 30.675781 C 56.523438 30.625 56.175781 30.675781 55.949219 30.800781 C 55.375 31.074219 55.324219 32.5 55.898438 32.5 C 56.101562 32.5 56.199219 32.601562 56.125 32.75 C 55.875 33.148438 56.25 33.050781 56.699219 32.601562 C 57 32.300781 57.125 32.273438 57.199219 32.5 C 57.351562 32.949219 56.726562 33.273438 55.949219 33.101562 C 55.398438 33 55.25 33.050781 55.25 33.375 C 55.25 33.800781 55.523438 33.800781 56.726562 33.476562 C 56.898438 33.425781 57.125 33.523438 57.199219 33.726562 C 57.25 33.925781 57.199219 34 57.050781 33.925781 C 56.925781 33.824219 56.675781 33.925781 56.5 34.148438 C 56.324219 34.351562 56 34.449219 55.824219 34.398438 C 55.550781 34.300781 55.5 34.398438 55.625 34.75 C 55.726562 35.023438 55.675781 35.25 55.523438 35.25 C 55.375 35.25 55.25 35.125 55.25 35 C 55.25 34.851562 55.050781 34.875 54.75 35.050781 C 54.476562 35.226562 54.25 35.550781 54.25 35.75 C 54.273438 36.050781 54.324219 36.050781 54.601562 35.675781 C 55.023438 35.101562 55.25 35.125 55.25 35.75 C 55.25 36.175781 55.375 36.125 56.125 35.351562 C 56.625 34.851562 57.101562 34.523438 57.199219 34.601562 C 57.273438 34.699219 57.199219 34.875 57.023438 35 C 56.824219 35.101562 56.726562 35.425781 56.824219 35.726562 C 56.898438 36.074219 56.824219 36.25 56.601562 36.25 C 56.398438 36.25 56.25 36.351562 56.25 36.5 C 56.25 36.625 56.425781 36.675781 56.625 36.601562 C 56.875 36.5 57 36.601562 57 36.875 C 57 37.101562 56.898438 37.226562 56.773438 37.148438 C 56.449219 36.949219 55.574219 38.5 55.125 40.101562 C 54.148438 43.476562 51.125 45.601562 44.875 47.375 C 44.050781 47.601562 42.851562 48.074219 42.199219 48.425781 L 41 49.074219 L 39.523438 48.398438 C 38.726562 48.050781 37.773438 47.75 37.449219 47.75 C 36.648438 47.75 34.875 46.476562 34.25 45.425781 C 33.175781 43.675781 33.898438 41.375 35.875 40.375 C 36.425781 40.101562 36.925781 39.800781 37 39.726562 C 37.074219 39.648438 37.75 39.601562 38.5 39.625 C 39.976562 39.675781 41.949219 40.351562 42.425781 40.976562 C 43.273438 42.050781 42.351562 43.5 40.851562 43.5 C 40.148438 43.5 39.800781 43.300781 39.148438 42.601562 C 38.199219 41.550781 37.648438 41.574219 37.226562 42.648438 C 37.050781 43.148438 37.050781 43.375 37.300781 43.523438 C 37.476562 43.625 37.550781 43.800781 37.449219 43.875 C 37.199219 44.148438 38.300781 45.273438 39.175781 45.648438 C 40.226562 46.101562 41.851562 46.101562 42.726562 45.625 C 43.851562 45.050781 44.75 43.824219 44.75 42.875 C 44.75 41.949219 45.273438 41.375 45.925781 41.601562 C 46.300781 41.726562 46.273438 41.675781 45.875 41.375 C 45.398438 41 45.398438 41 46 41.101562 C 46.351562 41.148438 46.601562 41.324219 46.574219 41.476562 C 46.523438 41.625 46.675781 41.75 46.898438 41.75 C 47.101562 41.75 47.226562 41.648438 47.148438 41.550781 C 47 41.273438 47.699219 40.25 48.023438 40.25 C 48.324219 40.25 49.125 39.5 48.824219 39.5 C 48.726562 39.5 48.800781 39.375 49 39.25 C 49.300781 39.050781 49.300781 39 49.023438 39 C 48.824219 39 48.949219 38.773438 49.324219 38.476562 C 49.824219 38.101562 50.101562 38.023438 50.449219 38.226562 C 50.800781 38.398438 50.898438 38.375 50.898438 38 C 50.898438 37.675781 50.800781 37.601562 50.601562 37.75 C 50.25 38.050781 50 37.824219 50 37.199219 C 50 36.925781 49.898438 36.800781 49.75 36.875 C 49.601562 36.949219 49.574219 36.851562 49.648438 36.648438 C 49.726562 36.425781 49.898438 36.25 50.023438 36.25 C 50.148438 36.25 50.25 36 50.25 35.675781 C 50.226562 35.148438 50.226562 35.148438 49.875 35.601562 C 49.675781 35.875 49.449219 36.023438 49.351562 35.949219 C 49.199219 35.800781 49.949219 34.824219 50.925781 33.875 C 51.25 33.574219 51.425781 33.25 51.324219 33.175781 C 51.148438 33 49.851562 34.273438 49.925781 34.550781 C 49.949219 34.625 49.824219 34.75 49.648438 34.824219 C 49.398438 34.925781 49.324219 34.773438 49.375 34.300781 C 49.449219 33.675781 49.425781 33.675781 49.074219 34.125 C 48.726562 34.601562 48.699219 34.550781 48.800781 33.574219 C 48.875 32.75 48.824219 32.601562 48.574219 32.800781 C 48.101562 33.199219 48.148438 32.550781 48.625 32.074219 C 48.851562 31.875 48.949219 31.625 48.851562 31.523438 C 48.75 31.449219 48.625 31.523438 48.574219 31.675781 C 48.5 31.851562 48.300781 32 48.101562 32 C 47.875 32 47.800781 31.875 47.875 31.726562 C 47.976562 31.574219 47.875 31.5 47.675781 31.550781 C 47.449219 31.601562 47.273438 31.5 47.273438 31.375 C 47.25 31.226562 47.375 31.125 47.550781 31.125 C 47.699219 31.125 47.875 31 47.925781 30.824219 C 48 30.601562 47.824219 30.574219 47.199219 30.773438 C 46.175781 31.050781 46.023438 31.050781 46.5 30.75 C 46.824219 30.550781 46.824219 30.5 46.476562 30.5 C 46.25 30.5 45.976562 30.324219 45.898438 30.101562 C 45.824219 29.898438 45.648438 29.773438 45.523438 29.875 C 45.050781 30.148438 44.949219 29.449219 45.398438 29.101562 C 45.824219 28.800781 45.824219 28.773438 45.449219 28.898438 C 45.199219 28.976562 45 28.925781 45 28.773438 C 45 28.625 44.898438 28.5 44.75 28.5 C 44.625 28.5 44.5 28.699219 44.5 28.925781 C 44.5 29.273438 44.449219 29.300781 44.273438 29.023438 C 44.148438 28.824219 43.925781 28.773438 43.726562 28.875 C 43.523438 29 43.449219 29 43.550781 28.875 C 43.925781 28.476562 43.226562 28 42.726562 28.273438 C 42.25 28.523438 42.125 28.25 42.199219 27.023438 C 42.199219 26.824219 41.949219 27 41.625 27.398438 C 41.050781 28.074219 41.023438 28.101562 41.175781 27.523438 C 41.273438 27.101562 41.199219 26.824219 40.875 26.601562 C 40.351562 26.226562 38.398438 26.125 38.601562 26.476562 C 38.675781 26.601562 38.574219 26.773438 38.351562 26.851562 C 37.75 27.074219 37.25 27.023438 37.25 26.726562 C 37.25 26.601562 37.375 26.550781 37.5 26.625 C 37.648438 26.699219 37.75 26.675781 37.75 26.550781 C 37.75 26.398438 37.574219 26.226562 37.351562 26.148438 C 37.148438 26.074219 37.050781 26.101562 37.125 26.25 C 37.300781 26.550781 36.125 26.875 35.75 26.625 C 35.601562 26.523438 35.523438 26.300781 35.601562 26.101562 C 35.675781 25.925781 35.601562 25.824219 35.425781 25.898438 C 35.25 25.949219 35 25.75 34.875 25.449219 C 34.601562 24.851562 33.75 24.5 33.75 25 C 33.75 25.175781 33.925781 25.226562 34.175781 25.148438 C 34.425781 25.050781 34.523438 25.050781 34.425781 25.148438 C 34.324219 25.25 34.675781 25.800781 35.175781 26.351562 C 35.976562 27.199219 36.023438 27.273438 35.449219 26.925781 C 34.851562 26.550781 34.75 26.550781 34.75 26.875 C 34.75 27.148438 34.574219 27.199219 34 27.101562 C 33.5 27 33.148438 27.074219 32.851562 27.351562 C 32.523438 27.675781 32.375 27.699219 32.074219 27.449219 C 31.800781 27.226562 31.675781 27.226562 31.5 27.5 C 31.398438 27.675781 31.125 27.75 30.875 27.648438 C 30.550781 27.550781 30.476562 27.601562 30.601562 27.875 C 30.800781 28.398438 30.324219 28.351562 30.023438 27.824219 C 29.898438 27.574219 29.699219 27.476562 29.601562 27.574219 C 29.476562 27.699219 29.550781 27.875 29.726562 27.976562 C 30.25 28.300781 29.773438 28.800781 29.125 28.648438 C 28.75 28.550781 28.5 28.625 28.398438 28.875 C 28.324219 29.074219 28.023438 29.25 27.75 29.25 C 27.476562 29.25 27.175781 29.425781 27.101562 29.625 C 27 29.824219 26.699219 30 26.398438 30.023438 C 26.125 30.023438 26.023438 30.101562 26.199219 30.175781 C 26.699219 30.375 26.550781 30.824219 26 30.675781 C 25.625 30.574219 25.5 30.675781 25.5 31.023438 C 25.5 31.300781 25.324219 31.5 25.074219 31.5 C 24.625 31.5 22.375 33.800781 21.199219 35.449219 C 20.101562 37.050781 18.851562 39.875 18.226562 42.273438 C 17.523438 44.824219 17.5 49.25 18.148438 51.199219 C 19.148438 54.148438 21.300781 57.75 23.226562 59.726562 C 26 62.523438 30.101562 64.273438 35.175781 64.875 C 36.75 65.050781 38.101562 65.273438 38.175781 65.324219 C 38.449219 65.625 37.074219 66.074219 35.574219 66.199219 C 30.324219 66.625 18.851562 61.726562 13.449219 56.773438 C 10.699219 54.25 9.351562 49.976562 9.601562 44.625 C 9.726562 41.398438 10.175781 39.351562 11.148438 37.449219 C 11.625 36.523438 12.023438 36.125 13.023438 35.601562 C 15.398438 34.398438 17.625 31.851562 17.824219 30.101562 C 17.875 29.675781 17.976562 29.25 18.050781 29.125 C 18.125 28.976562 18.25 28.449219 18.351562 27.925781 C 18.449219 27.425781 18.625 27 18.75 27 C 18.875 27 18.898438 26.824219 18.824219 26.574219 C 18.699219 26.273438 18.75 26.226562 19 26.375 C 19.25 26.523438 19.300781 26.476562 19.175781 26.199219 C 19.101562 25.949219 19.25 25.601562 19.550781 25.324219 C 19.925781 25.023438 20.023438 25 19.898438 25.25 C 19.800781 25.449219 19.925781 25.375 20.199219 25.050781 C 20.800781 24.398438 21 24.351562 21 24.875 C 21 25.199219 21.199219 25.25 21.949219 25.101562 C 22.449219 25.023438 23 24.773438 23.175781 24.574219 C 23.425781 24.25 23.550781 24.273438 24.101562 24.625 C 24.601562 24.949219 24.824219 25 25.101562 24.773438 C 25.375 24.550781 25.523438 24.625 25.875 25.175781 L 26.324219 25.851562 L 26.773438 25.300781 C 27.351562 24.574219 27.601562 24.601562 27.398438 25.351562 C 27.273438 25.875 27.324219 25.925781 28.050781 25.851562 C 29 25.726562 29.523438 25.324219 29.324219 24.851562 C 29.25 24.648438 29.324219 24.5 29.476562 24.5 C 29.625 24.5 29.75 24.648438 29.75 24.851562 C 29.75 25.050781 29.875 25.300781 30.023438 25.398438 C 30.425781 25.648438 33.25 25.699219 33.101562 25.449219 C 33.023438 25.351562 32.75 25.25 32.476562 25.25 C 32.199219 25.25 32.050781 25.125 32.125 25 C 32.199219 24.851562 32.050781 24.75 31.773438 24.75 C 31.523438 24.75 31.25 24.898438 31.175781 25.050781 C 31.074219 25.300781 31 25.300781 30.726562 25.050781 C 30.449219 24.800781 30.449219 24.75 30.726562 24.75 C 30.949219 24.75 31 24.550781 30.925781 24.226562 C 30.800781 23.75 30.875 23.699219 31.773438 23.800781 C 32.375 23.851562 32.726562 23.800781 32.675781 23.625 C 32.574219 23.324219 30.773438 23.25 30.726562 23.550781 C 30.648438 24.023438 30.601562 24.148438 30.300781 24.625 C 30 25.125 30 25.125 30.050781 24.625 C 30.101562 24.273438 30 24.125 29.699219 24.148438 C 29.449219 24.175781 29.25 24.023438 29.25 23.824219 C 29.25 23.574219 29.425781 23.476562 29.75 23.574219 C 30.023438 23.648438 30.25 23.625 30.25 23.5 C 30.25 23.25 29.601562 23 28.875 23 C 28.550781 23 28.125 22.824219 27.898438 22.625 C 27.699219 22.425781 27.351562 22.25 27.148438 22.25 C 26.898438 22.25 26.824219 22.101562 26.898438 21.875 C 27 21.675781 26.925781 21.5 26.75 21.5 C 26.601562 21.5 26.550781 21.601562 26.625 21.75 C 26.699219 21.875 26.648438 22 26.5 22 C 26.351562 22 26.300781 22.101562 26.375 22.25 C 26.449219 22.375 26.75 22.5 27.050781 22.5 C 27.398438 22.5 27.5 22.625 27.398438 22.898438 C 27.300781 23.199219 27.375 23.25 27.75 23.125 C 28.125 23 28.25 23.074219 28.273438 23.425781 C 28.273438 23.675781 28.351562 23.75 28.425781 23.550781 C 28.476562 23.398438 28.699219 23.25 28.898438 23.25 C 29.175781 23.25 29.175781 23.375 28.949219 23.875 C 28.800781 24.226562 28.574219 24.5 28.449219 24.5 C 28.324219 24.5 28.300781 24.375 28.398438 24.199219 C 28.523438 24 28.449219 23.976562 28.175781 24.074219 C 27.949219 24.148438 27.625 24.074219 27.449219 23.898438 C 27.273438 23.726562 26.898438 23.625 26.625 23.699219 C 26.125 23.824219 26.125 23.824219 26.625 23.273438 C 26.898438 22.976562 27 22.75 26.875 22.773438 C 26.726562 22.824219 26.375 22.726562 26.074219 22.550781 C 25.648438 22.300781 25.523438 22.324219 25.351562 22.699219 C 25.25 22.925781 25.199219 23.273438 25.226562 23.425781 C 25.25 23.601562 25.101562 23.75 24.875 23.75 C 24.675781 23.75 24.5 23.625 24.5 23.5 C 24.5 23.351562 24.351562 23.25 24.148438 23.25 C 23.648438 23.25 23.476562 22.625 23.851562 22.101562 C 24.101562 21.800781 24.351562 21.726562 24.875 21.851562 C 25.425781 22 25.523438 21.949219 25.425781 21.648438 C 25.324219 21.425781 25.375 21.25 25.5 21.25 C 25.648438 21.25 25.75 21.351562 25.75 21.5 C 25.75 21.625 25.875 21.75 26.023438 21.75 C 26.175781 21.75 26.25 21.574219 26.148438 21.375 C 26.050781 21.074219 26.175781 21 26.773438 21.050781 C 27.199219 21.074219 27.625 21.25 27.675781 21.425781 C 27.75 21.601562 27.898438 21.75 28.023438 21.75 C 28.148438 21.75 28.125 21.449219 28 21.101562 C 27.675781 20.273438 27.675781 20.25 28.125 20.398438 C 28.324219 20.5 28.449219 20.648438 28.375 20.75 C 28.300781 20.875 28.375 21.050781 28.523438 21.148438 C 28.726562 21.273438 28.773438 21.125 28.699219 20.699219 C 28.601562 20.101562 28.648438 20.074219 29.550781 20.125 C 30.125 20.175781 30.449219 20.101562 30.351562 19.949219 C 30.25 19.800781 30.398438 19.75 30.726562 19.875 C 31.023438 19.976562 31.25 19.925781 31.25 19.773438 C 31.25 19.625 31.125 19.5 30.949219 19.5 C 30.800781 19.5 30.726562 19.425781 30.824219 19.351562 C 30.898438 19.273438 31.148438 19.300781 31.398438 19.449219 C 31.675781 19.601562 31.726562 19.75 31.550781 19.851562 C 31.226562 20.050781 31.425781 20.75 31.800781 20.75 C 31.949219 20.75 32 20.601562 31.925781 20.425781 C 31.851562 20.199219 32.074219 20.101562 32.648438 20.074219 C 33.125 20.050781 33.5 20.148438 33.5 20.273438 C 33.5 20.398438 33.199219 20.5 32.824219 20.5 C 32.226562 20.523438 32.175781 20.550781 32.574219 20.773438 C 32.800781 20.898438 33.125 20.949219 33.25 20.875 C 33.398438 20.800781 33.5 20.851562 33.5 21 C 33.5 21.425781 34.25 22.101562 34.449219 21.875 C 34.550781 21.773438 34.476562 21.625 34.324219 21.574219 C 33.875 21.425781 33.925781 21 34.375 21 C 34.574219 21 34.75 20.824219 34.75 20.625 C 34.75 20.425781 34.898438 20.25 35.074219 20.226562 C 35.300781 20.226562 35.300781 20.175781 35.050781 20.074219 C 34.824219 20 34.875 19.824219 35.273438 19.476562 C 35.574219 19.226562 35.949219 19 36.101562 19 C 36.25 19 36.199219 19.125 36 19.25 C 35.800781 19.375 35.75 19.5 35.898438 19.5 C 36.050781 19.5 36.375 19.25 36.601562 18.925781 C 36.824219 18.625 36.976562 18.523438 36.925781 18.726562 C 36.851562 19.199219 39.023438 19.125 39.351562 18.648438 C 39.550781 18.351562 39.648438 18.351562 39.925781 18.648438 C 40.125 18.851562 40.449219 19 40.648438 19 Z M 35 19.125 C 35 19.324219 34.851562 19.5 34.648438 19.5 C 34.449219 19.5 34.25 19.648438 34.175781 19.800781 C 34.125 19.976562 33.976562 20.050781 33.875 19.949219 C 33.75 19.824219 33.925781 19.523438 34.25 19.25 C 34.949219 18.648438 35 18.648438 35 19.125 Z M 23.273438 23.574219 C 23.125 23.726562 23 24.050781 23 24.300781 C 23 24.648438 22.800781 24.75 22.125 24.75 C 21.273438 24.75 20.976562 24.449219 21.5 24.125 C 21.648438 24.050781 21.75 24.074219 21.75 24.226562 C 21.75 24.375 21.925781 24.425781 22.125 24.324219 C 22.351562 24.25 22.449219 24.125 22.375 24.050781 C 22.175781 23.824219 23.050781 23 23.300781 23.148438 C 23.449219 23.25 23.449219 23.398438 23.273438 23.574219 Z M 24.25 23.726562 C 24.25 23.851562 24.5 24 24.824219 24.074219 C 25.300781 24.148438 25.324219 24.199219 24.949219 24.351562 C 24.675781 24.476562 24.375 24.398438 24.125 24.175781 C 23.699219 23.726562 23.648438 23.5 24 23.5 C 24.148438 23.5 24.25 23.601562 24.25 23.726562 Z M 25.875 23.726562 C 25.726562 24 26.648438 24.351562 26.976562 24.125 C 27.101562 24.050781 27.273438 24.101562 27.375 24.25 C 27.449219 24.375 27.324219 24.523438 27.074219 24.550781 C 25.800781 24.648438 25.675781 24.601562 25.601562 24.050781 C 25.550781 23.75 25.625 23.5 25.773438 23.5 C 25.898438 23.5 25.976562 23.601562 25.875 23.726562 Z M 39.898438 26.773438 C 40.023438 26.976562 40.101562 26.976562 40.25 26.773438 C 40.375 26.550781 40.5 26.574219 40.75 26.875 C 40.925781 27.101562 40.949219 27.25 40.800781 27.25 C 40.648438 27.25 40.375 27.324219 40.148438 27.398438 C 39.898438 27.5 39.75 27.425781 39.75 27.175781 C 39.75 26.949219 39.550781 26.726562 39.324219 26.675781 C 38.925781 26.574219 38.925781 26.550781 39.300781 26.523438 C 39.523438 26.523438 39.800781 26.625 39.898438 26.773438 Z M 62.351562 54.523438 C 61.324219 56.375 58.898438 58.523438 56.375 59.773438 C 55.199219 60.351562 54.199219 60.773438 54.125 60.699219 C 54 60.574219 55.726562 59.300781 58.175781 57.726562 C 59.023438 57.175781 60.449219 55.949219 61.300781 55 C 62.175781 54.050781 62.898438 53.273438 62.949219 53.25 C 63 53.25 62.726562 53.824219 62.351562 54.523438 Z M 62.351562 54.523438 "/>
<path style=" stroke:none;fill-rule:nonzero;fill:rgb(0%,0%,0%);fill-opacity:1;" d="M 38.675781 19.425781 C 38.601562 19.523438 39.023438 19.625 39.574219 19.648438 C 41.5 19.675781 42.925781 20.050781 43.300781 20.601562 C 43.425781 20.800781 43.5 20.773438 43.5 20.574219 C 43.5 20.398438 43.699219 20.324219 43.949219 20.398438 C 44.175781 20.476562 43.800781 20.25 43.125 19.925781 C 41.875 19.324219 38.925781 19 38.675781 19.425781 Z M 38.675781 19.425781 "/>
<path style=" stroke:none;fill-rule:nonzero;fill:rgb(0%,0%,0%);fill-opacity:1;" d="M 39 20.050781 C 39 20.199219 38.925781 20.25 38.824219 20.175781 C 38.625 19.949219 37.5 20.976562 37.5 21.351562 C 37.523438 21.5 37.726562 21.375 38 21.050781 C 38.324219 20.648438 38.648438 20.5 38.976562 20.625 C 39.25 20.699219 39.523438 20.648438 39.625 20.523438 C 39.699219 20.351562 39.625 20.324219 39.375 20.398438 C 39.101562 20.523438 39.023438 20.449219 39.148438 20.148438 C 39.226562 19.925781 39.226562 19.75 39.148438 19.75 C 39.074219 19.75 39 19.875 39 20.050781 Z M 39 20.050781 "/>
<path style=" stroke:none;fill-rule:nonzero;fill:rgb(0%,0%,0%);fill-opacity:1;" d="M 41 20.425781 C 41.550781 20.476562 41.949219 20.625 41.875 20.773438 C 41.773438 20.898438 41.851562 21 42 21 C 42.175781 21 42.25 20.851562 42.199219 20.675781 C 42.125 20.5 41.625 20.375 41.050781 20.351562 L 40 20.324219 Z M 41 20.425781 "/>
<path style=" stroke:none;fill-rule:nonzero;fill:rgb(0%,0%,0%);fill-opacity:1;" d="M 39.300781 21.074219 C 39 21.25 38.800781 21.476562 38.875 21.550781 C 38.949219 21.625 38.851562 21.824219 38.648438 21.976562 C 38.351562 22.226562 38.324219 22.425781 38.550781 22.875 C 38.699219 23.199219 38.976562 23.523438 39.175781 23.601562 C 39.375 23.675781 39.476562 23.648438 39.375 23.523438 C 39.148438 23.148438 39.523438 22.523438 39.898438 22.675781 C 40.101562 22.75 40.25 22.898438 40.25 23.050781 C 40.25 23.175781 40.148438 23.199219 40 23.125 C 39.875 23.050781 39.75 23.101562 39.75 23.226562 C 39.75 23.625 40.25 23.550781 40.398438 23.125 C 40.5 22.925781 40.648438 22.824219 40.773438 22.898438 C 40.898438 22.976562 41.148438 22.949219 41.324219 22.824219 C 41.5 22.699219 41.199219 22.574219 40.5 22.476562 C 39.625 22.351562 39.300781 22.425781 39.074219 22.726562 C 38.800781 23.074219 38.773438 23.074219 38.773438 22.625 C 38.773438 22.023438 39.175781 21.449219 39.875 21.050781 C 40.148438 20.898438 40.273438 20.773438 40.125 20.773438 C 40 20.773438 39.625 20.898438 39.300781 21.074219 Z M 39.300781 21.074219 "/>
<path style=" stroke:none;fill-rule:nonzero;fill:rgb(0%,0%,0%);fill-opacity:1;" d="M 44.25 21 C 44.550781 21.199219 44.550781 21.25 44.175781 21.398438 C 43.949219 21.476562 43.574219 21.425781 43.375 21.25 C 43.074219 21 43.074219 21.074219 43.398438 21.699219 C 43.648438 22.199219 43.898438 22.425781 44.125 22.324219 C 44.324219 22.25 44.5 22.324219 44.5 22.476562 C 44.5 22.625 44.699219 22.675781 44.949219 22.574219 C 45.324219 22.425781 45.324219 22.476562 44.898438 22.949219 C 44.625 23.25 44.523438 23.5 44.648438 23.5 C 44.773438 23.5 44.699219 23.625 44.5 23.75 C 44.226562 23.925781 44.199219 24 44.449219 24 C 44.898438 24 45.523438 23.351562 45.300781 23.101562 C 45.199219 22.976562 45.324219 23.050781 45.574219 23.226562 C 45.925781 23.5 45.949219 23.625 45.699219 23.773438 C 45.398438 23.976562 45.601562 24.101562 46.074219 24.023438 C 46.375 23.976562 46.273438 24.449219 45.949219 24.574219 C 45.726562 24.675781 45.773438 24.726562 46.023438 24.726562 C 46.5 24.75 46.648438 26.25 46.175781 26.25 C 45.976562 26.25 45.976562 26.324219 46.199219 26.476562 C 46.476562 26.625 46.398438 26.800781 45.898438 27.199219 C 45.523438 27.476562 45.324219 27.75 45.425781 27.824219 C 45.523438 27.875 45.925781 27.601562 46.300781 27.226562 C 46.675781 26.824219 46.851562 26.5 46.675781 26.5 C 46.476562 26.5 46.5 26.425781 46.726562 26.273438 C 47.25 25.949219 46.898438 24.398438 46.148438 23.476562 C 45.800781 23.050781 45.5 22.625 45.5 22.5 C 45.5 22.375 45.25 22.25 44.949219 22.199219 C 44.648438 22.148438 44.351562 21.949219 44.300781 21.75 C 44.175781 21.425781 44.226562 21.425781 44.574219 21.726562 C 45.050781 22.101562 45.125 21.925781 44.75 21.226562 C 44.601562 20.976562 44.351562 20.75 44.175781 20.75 C 43.976562 20.75 44 20.851562 44.25 21 Z M 44.25 21 "/>
<path style=" stroke:none;fill-rule:nonzero;fill:rgb(0%,0%,0%);fill-opacity:1;" d="M 29.25 21.375 C 29.25 21.601562 29.351562 21.726562 29.476562 21.648438 C 29.574219 21.574219 29.875 21.675781 30.125 21.851562 C 30.800781 22.324219 30.199219 22.523438 29.375 22.101562 C 29 21.898438 28.625 21.773438 28.574219 21.824219 C 28.425781 22 29.074219 22.398438 29.925781 22.699219 C 30.574219 22.925781 30.726562 22.898438 30.875 22.550781 C 30.949219 22.324219 30.898438 22.101562 30.773438 22.050781 C 30.625 22 30.574219 21.824219 30.675781 21.675781 C 30.75 21.5 30.726562 21.449219 30.625 21.574219 C 30.5 21.675781 30.148438 21.574219 29.824219 21.375 C 29.300781 21.023438 29.25 21.023438 29.25 21.375 Z M 29.25 21.375 "/>
<path style=" stroke:none;fill-rule:nonzero;fill:rgb(0%,0%,0%);fill-opacity:1;" d="M 31 21.273438 C 31 21.375 31.476562 21.625 32.074219 21.800781 C 32.648438 21.949219 33.199219 22.199219 33.273438 22.324219 C 33.375 22.449219 33.5 22.449219 33.601562 22.300781 C 33.773438 22 33 21.5 32.375 21.5 C 32.148438 21.5 32.023438 21.425781 32.074219 21.300781 C 32.148438 21.199219 31.925781 21.101562 31.601562 21.101562 C 31.273438 21.074219 31 21.148438 31 21.273438 Z M 31 21.273438 "/>
<path style=" stroke:none;fill-rule:nonzero;fill:rgb(0%,0%,0%);fill-opacity:1;" d="M 36.300781 22.074219 C 36.25 23.351562 36.75 24.351562 37.726562 25 C 38.851562 25.773438 39.125 25.898438 38.898438 25.523438 C 38.800781 25.375 38.824219 25.25 38.976562 25.25 C 39.101562 25.25 39.25 25.375 39.300781 25.523438 C 39.351562 25.675781 39.625 25.75 39.875 25.699219 C 40.25 25.601562 39.976562 25.398438 38.824219 24.851562 C 37.175781 24.074219 36.398438 23.074219 36.648438 22.074219 C 36.726562 21.800781 36.699219 21.5 36.550781 21.398438 C 36.425781 21.324219 36.324219 21.625 36.300781 22.074219 Z M 36.300781 22.074219 "/>
<path style=" stroke:none;fill-rule:nonzero;fill:rgb(0%,0%,0%);fill-opacity:1;" d="M 40.050781 21.675781 C 39.75 21.726562 39.550781 21.898438 39.625 22.023438 C 39.726562 22.148438 40.023438 22.199219 40.351562 22.101562 C 40.851562 21.976562 41.675781 22.199219 43.375 22.875 C 43.875 23.074219 43.875 23.074219 43.398438 22.550781 C 43.148438 22.25 42.824219 22.074219 42.726562 22.148438 C 42.601562 22.226562 42.5 22.074219 42.5 21.824219 C 42.5 21.449219 42.449219 21.425781 42.25 21.75 C 42.050781 22.050781 41.925781 22.074219 41.5 21.800781 C 41.226562 21.648438 40.925781 21.523438 40.824219 21.523438 C 40.699219 21.550781 40.375 21.625 40.050781 21.675781 Z M 40.050781 21.675781 "/>
<path style=" stroke:none;fill-rule:nonzero;fill:rgb(0%,0%,0%);fill-opacity:1;" d="M 37.125 22.023438 C 37.023438 22.148438 37.101562 22.25 37.226562 22.25 C 37.375 22.25 37.5 22.523438 37.5 22.824219 C 37.5 23.148438 37.699219 23.601562 37.949219 23.824219 C 38.648438 24.476562 38.851562 24.324219 38.273438 23.601562 C 37.898438 23.125 37.824219 22.824219 37.976562 22.398438 C 38.148438 21.949219 38.101562 21.851562 37.726562 21.824219 C 37.476562 21.800781 37.199219 21.875 37.125 22.023438 Z M 37.125 22.023438 "/>
<path style=" stroke:none;fill-rule:nonzero;fill:rgb(0%,0%,0%);fill-opacity:1;" d="M 45.925781 22.550781 C 46.125 22.925781 46.375 23.25 46.449219 23.273438 C 46.550781 23.273438 46.800781 23.324219 47.023438 23.375 C 47.75 23.5 48.023438 23.125 47.476562 22.773438 C 47.175781 22.601562 47.023438 22.574219 47.125 22.726562 C 47.199219 22.875 47.101562 23 46.875 23 C 46.648438 23 46.550781 22.875 46.625 22.75 C 46.699219 22.601562 46.648438 22.5 46.523438 22.5 C 46.375 22.5 46.25 22.351562 46.25 22.175781 C 46.25 21.976562 46.101562 21.824219 45.925781 21.824219 C 45.648438 21.824219 45.648438 21.949219 45.925781 22.550781 Z M 45.925781 22.550781 "/>
<path style=" stroke:none;fill-rule:nonzero;fill:rgb(0%,0%,0%);fill-opacity:1;" d="M 31.175781 22.425781 C 30.824219 22.773438 31.023438 22.898438 31.949219 22.898438 C 32.449219 22.898438 33.074219 23 33.324219 23.101562 C 33.601562 23.226562 33.75 23.199219 33.75 23.023438 C 33.75 22.875 33.523438 22.75 33.25 22.75 C 32.976562 22.75 32.75 22.648438 32.75 22.550781 C 32.75 22.300781 31.398438 22.199219 31.175781 22.425781 Z M 31.175781 22.425781 "/>
<path style=" stroke:none;fill-rule:nonzero;fill:rgb(0%,0%,0%);fill-opacity:1;" d="M 34.523438 22.675781 C 34.5 23.25 34.976562 24.476562 35.226562 24.523438 C 35.300781 24.523438 35.601562 24.574219 35.875 24.625 C 36.300781 24.699219 36.324219 24.675781 35.976562 24.425781 C 35.75 24.25 35.625 23.949219 35.675781 23.75 C 35.773438 23.425781 35.75 23.425781 35.523438 23.75 C 35.226562 24.175781 35.148438 24.125 34.824219 23 C 34.625 22.375 34.550781 22.273438 34.523438 22.675781 Z M 34.523438 22.675781 "/>
<path style=" stroke:none;fill-rule:nonzero;fill:rgb(0%,0%,0%);fill-opacity:1;" d="M 41.75 23.199219 C 41.75 23.375 41.550781 23.5 41.324219 23.449219 C 41.074219 23.398438 40.898438 23.5 40.925781 23.648438 C 40.949219 23.824219 40.851562 23.925781 40.675781 23.925781 C 39.675781 23.898438 39 24.023438 39 24.25 C 39 24.550781 40.675781 24.324219 41.125 24 C 41.273438 23.898438 41.574219 23.773438 41.800781 23.726562 C 42.125 23.648438 42.175781 23.523438 42 23.25 C 41.824219 22.976562 41.75 22.976562 41.75 23.199219 Z M 41.75 23.199219 "/>
<path style=" stroke:none;fill-rule:nonzero;fill:rgb(0%,0%,0%);fill-opacity:1;" d="M 47.125 24.226562 C 47.226562 24.449219 47.351562 24.976562 47.425781 25.375 C 47.5 25.898438 47.699219 26.148438 48 26.148438 C 48.25 26.148438 48.398438 26 48.324219 25.824219 C 48.25 25.648438 48.074219 25.574219 47.949219 25.648438 C 47.800781 25.75 47.726562 25.675781 47.773438 25.523438 C 47.851562 25.351562 47.976562 25.226562 48.074219 25.226562 C 48.175781 25.25 48.398438 25.25 48.601562 25.25 C 48.800781 25.25 49 25.449219 49.050781 25.675781 C 49.125 26.101562 49.148438 26.101562 49.300781 25.699219 C 49.449219 25.351562 49.273438 25.199219 48.476562 24.976562 C 47.425781 24.648438 47.25 24.074219 48.273438 24.199219 C 48.601562 24.25 48.800781 24.226562 48.726562 24.148438 C 48.648438 24.074219 48.226562 23.949219 47.773438 23.898438 C 47.125 23.824219 47 23.875 47.125 24.226562 Z M 47.125 24.226562 "/>
<path style=" stroke:none;fill-rule:nonzero;fill:rgb(0%,0%,0%);fill-opacity:1;" d="M 42.398438 24.351562 C 42.523438 24.675781 41.648438 25.449219 40.75 25.851562 C 40.550781 25.925781 40.648438 25.949219 41 25.851562 C 41.351562 25.773438 41.773438 25.699219 41.949219 25.699219 C 42.101562 25.675781 42.25 25.523438 42.25 25.324219 C 42.25 25.148438 42.425781 24.925781 42.625 24.851562 C 43.101562 24.648438 43.101562 24.351562 42.648438 24.175781 C 42.398438 24.074219 42.324219 24.148438 42.398438 24.351562 Z M 42.398438 24.351562 "/>
<path style=" stroke:none;fill-rule:nonzero;fill:rgb(0%,0%,0%);fill-opacity:1;" d="M 43.375 24.273438 C 43.273438 24.425781 43.375 24.675781 43.574219 24.824219 C 43.773438 25 44.148438 25.550781 44.425781 26.050781 C 44.773438 26.75 44.976562 26.925781 45.25 26.75 C 45.550781 26.550781 45.550781 26.5 45.175781 26.351562 C 44.523438 26.101562 44.675781 25.773438 45.375 25.898438 C 45.726562 25.949219 46 25.898438 46 25.773438 C 46 25.648438 45.800781 25.574219 45.574219 25.625 C 44.949219 25.699219 44.25 25.300781 44.25 24.875 C 44.25 24.675781 44.175781 24.523438 44.074219 24.523438 C 43.574219 24.601562 43.425781 24.476562 43.75 24.25 C 43.976562 24.101562 44 24 43.824219 24 C 43.675781 24 43.449219 24.125 43.375 24.273438 Z M 43.375 24.273438 "/>
<path style=" stroke:none;fill-rule:nonzero;fill:rgb(0%,0%,0%);fill-opacity:1;" d="M 42.601562 25.625 C 42.476562 26.148438 42.550781 26.398438 42.898438 26.675781 C 43.226562 26.898438 43.398438 26.925781 43.449219 26.75 C 43.523438 26.574219 43.75 26.648438 44.050781 26.925781 C 44.550781 27.375 44.574219 27.375 44.226562 26.824219 C 44.050781 26.5 43.675781 26.300781 43.398438 26.324219 C 43.074219 26.351562 42.875 26.199219 42.800781 25.875 C 42.75 25.476562 42.773438 25.449219 42.976562 25.75 C 43.101562 25.949219 43.273438 26.050781 43.351562 26 C 43.398438 25.925781 43.300781 25.675781 43.125 25.398438 C 42.800781 24.976562 42.773438 24.976562 42.601562 25.625 Z M 42.601562 25.625 "/>
<path style=" stroke:none;fill-rule:nonzero;fill:rgb(0%,0%,0%);fill-opacity:1;" d="M 49.824219 26.050781 C 49.675781 26.226562 49.648438 26.574219 49.726562 26.824219 C 49.875 27.25 49.925781 27.25 50.226562 26.898438 C 50.425781 26.648438 50.449219 26.375 50.324219 26.125 C 50.125 25.800781 50.050781 25.773438 49.824219 26.050781 Z M 49.824219 26.050781 "/>
<path style=" stroke:none;fill-rule:nonzero;fill:rgb(0%,0%,0%);fill-opacity:1;" d="M 47.398438 27.476562 C 47.324219 28.023438 46.976562 28.800781 46.625 29.199219 C 46 29.949219 46 30.324219 46.648438 30.074219 C 46.851562 30 47.125 29.5 47.25 28.976562 C 47.398438 28.449219 47.625 28 47.726562 28 C 47.851562 28 47.898438 27.773438 47.824219 27.476562 C 47.726562 27.175781 47.824219 26.851562 48.023438 26.726562 C 48.300781 26.550781 48.300781 26.5 47.976562 26.5 C 47.699219 26.5 47.523438 26.800781 47.398438 27.476562 Z M 47.398438 27.476562 "/>
<path style=" stroke:none;fill-rule:nonzero;fill:rgb(0%,0%,0%);fill-opacity:1;" d="M 22.773438 27.75 C 22.300781 28.023438 22.648438 28.800781 23.175781 28.699219 C 23.425781 28.648438 23.773438 28.824219 23.949219 29.125 C 24.199219 29.5 24.25 29.5 24.148438 29.175781 C 24.050781 28.898438 24.148438 28.75 24.398438 28.75 C 24.648438 28.75 24.75 28.898438 24.675781 29.101562 C 24.574219 29.351562 24.648438 29.425781 24.898438 29.324219 C 25.175781 29.226562 25.199219 29.101562 24.976562 28.851562 C 24.824219 28.648438 24.523438 28.5 24.351562 28.5 C 24.148438 28.5 24 28.398438 24 28.25 C 24 27.875 23.125 27.523438 22.773438 27.75 Z M 22.773438 27.75 "/>
<path style=" stroke:none;fill-rule:nonzero;fill:rgb(0%,0%,0%);fill-opacity:1;" d="M 49.75 27.824219 C 49.75 28.148438 48.550781 29.425781 47.625 30.125 C 47.175781 30.449219 47.199219 30.476562 48 30.199219 C 49.074219 29.851562 50 28.851562 50 28.101562 C 50 27.773438 49.949219 27.5 49.875 27.5 C 49.800781 27.5 49.75 27.648438 49.75 27.824219 Z M 49.75 27.824219 "/>
<path style=" stroke:none;fill-rule:nonzero;fill:rgb(0%,0%,0%);fill-opacity:1;" d="M 53.875 28.449219 C 53.773438 28.550781 53.601562 28.625 53.476562 28.625 C 53.351562 28.625 53.273438 28.726562 53.324219 28.875 C 53.375 29.148438 54.25 29.101562 54.574219 28.773438 C 54.699219 28.648438 54.625 28.5 54.425781 28.425781 C 54.226562 28.351562 53.976562 28.351562 53.875 28.449219 Z M 53.875 28.449219 "/>
<path style=" stroke:none;fill-rule:nonzero;fill:rgb(0%,0%,0%);fill-opacity:1;" d="M 54.75 32.125 C 54.574219 32.324219 54.148438 32.5 53.800781 32.5 C 53 32.5 53.300781 32.824219 54.125 32.875 C 54.476562 32.875 54.75 32.75 54.75 32.601562 C 54.75 32.425781 54.898438 32.25 55.074219 32.175781 C 55.226562 32.125 55.300781 32 55.226562 31.898438 C 55.148438 31.800781 54.925781 31.898438 54.75 32.125 Z M 54.75 32.125 "/>
<path style=" stroke:none;fill-rule:nonzero;fill:rgb(0%,0%,0%);fill-opacity:1;" d="M 51.449219 34.375 C 51.050781 34.75 50.824219 35.148438 50.898438 35.375 C 51 35.574219 50.925781 35.75 50.75 35.75 C 50.5 35.75 50.5 35.824219 50.75 36.125 C 50.925781 36.324219 51.199219 36.5 51.351562 36.5 C 51.550781 36.5 51.550781 36.449219 51.351562 36.300781 C 51.101562 36.148438 51.25 35.125 51.5 35.273438 C 51.800781 35.449219 52.75 35 52.75 34.699219 C 52.75 34.425781 52.699219 34.449219 52.523438 34.726562 C 52.398438 34.898438 52.175781 34.976562 52.023438 34.898438 C 51.574219 34.625 51.699219 34.25 52.273438 34.25 C 52.550781 34.25 52.699219 34.125 52.625 34 C 52.398438 33.625 52.175781 33.699219 51.449219 34.375 Z M 51.449219 34.375 "/>
<path style=" stroke:none;fill-rule:nonzero;fill:rgb(0%,0%,0%);fill-opacity:1;" d="M 37 29.375 C 36.824219 29.601562 36.523438 29.726562 36.324219 29.648438 C 36.125 29.574219 36.050781 29.625 36.125 29.75 C 36.199219 29.898438 37 30 37.898438 30 C 39.273438 30 39.5 29.925781 39.476562 29.550781 C 39.476562 29.300781 39.398438 29.25 39.324219 29.425781 C 39.25 29.625 38.75 29.75 38.074219 29.75 C 37.101562 29.75 36.976562 29.699219 37.25 29.375 C 37.425781 29.175781 37.5 29 37.425781 29 C 37.375 29 37.175781 29.175781 37 29.375 Z M 37 29.375 "/>
<path style=" stroke:none;fill-rule:nonzero;fill:rgb(0%,0%,0%);fill-opacity:1;" d="M 33.375 29.75 C 33.273438 29.898438 33.101562 29.949219 32.976562 29.875 C 32.851562 29.773438 32.75 29.851562 32.75 29.976562 C 32.75 30.324219 33.175781 30.324219 33.375 29.976562 C 33.476562 29.824219 33.925781 29.773438 34.398438 29.824219 C 34.875 29.898438 35.25 29.851562 35.25 29.726562 C 35.25 29.425781 33.574219 29.449219 33.375 29.75 Z M 33.375 29.75 "/>
<path style=" stroke:none;fill-rule:nonzero;fill:rgb(0%,0%,0%);fill-opacity:1;" d="M 39.824219 29.851562 C 39.875 29.976562 40.273438 30.25 40.726562 30.425781 C 41.175781 30.625 41.476562 30.648438 41.398438 30.523438 C 41.324219 30.398438 41.398438 30.226562 41.550781 30.175781 C 41.726562 30.101562 41.550781 30.074219 41.125 30.074219 C 40.699219 30.101562 40.398438 30 40.425781 29.851562 C 40.449219 29.699219 40.300781 29.574219 40.101562 29.574219 C 39.898438 29.574219 39.773438 29.699219 39.824219 29.851562 Z M 39.824219 29.851562 "/>
<path style=" stroke:none;fill-rule:nonzero;fill:rgb(0%,0%,0%);fill-opacity:1;" d="M 31.5 30 C 31.5 30.125 31.273438 30.25 30.976562 30.25 C 30.699219 30.25 30.550781 30.351562 30.625 30.5 C 30.800781 30.773438 30.523438 30.824219 29.476562 30.75 C 29.074219 30.726562 28.75 30.875 28.675781 31.101562 C 28.550781 31.398438 28.675781 31.476562 29.199219 31.398438 C 29.574219 31.375 30.175781 31.175781 30.5 31 C 30.851562 30.800781 31.398438 30.601562 31.75 30.550781 C 32.550781 30.449219 32.574219 30.398438 32 30.050781 C 31.699219 29.875 31.5 29.851562 31.5 30 Z M 31.5 30 "/>
<path style=" stroke:none;fill-rule:nonzero;fill:rgb(0%,0%,0%);fill-opacity:1;" d="M 23.898438 35.175781 C 23.824219 35.375 23.648438 35.449219 23.5 35.375 C 23.375 35.300781 23.25 35.398438 23.25 35.601562 C 23.25 35.800781 23.050781 36.101562 22.824219 36.226562 C 22.574219 36.375 22.5 36.476562 22.625 36.476562 C 22.773438 36.476562 23.300781 36.101562 23.800781 35.648438 C 24.324219 35.199219 24.574219 34.824219 24.375 34.824219 C 24.175781 34.824219 23.949219 35 23.898438 35.175781 Z M 23.898438 35.175781 "/>
<path style=" stroke:none;fill-rule:nonzero;fill:rgb(0%,0%,0%);fill-opacity:1;" d="M 29.425781 35.023438 C 29.199219 35.175781 29 35.375 29 35.5 C 29 35.898438 29.75 35.773438 29.925781 35.375 C 30.125 34.851562 29.949219 34.75 29.425781 35.023438 Z M 29.425781 35.023438 "/>
<path style=" stroke:none;fill-rule:nonzero;fill:rgb(0%,0%,0%);fill-opacity:1;" d="M 31.726562 40 C 31.300781 40.398438 31 40.875 31.074219 41.050781 C 31.175781 41.300781 31.226562 41.300781 31.226562 41.050781 C 31.25 40.898438 31.375 40.75 31.5 40.75 C 31.675781 40.75 31.675781 40.898438 31.5 41.25 C 31.273438 41.675781 31.300781 41.75 31.800781 41.75 C 32.148438 41.75 32.273438 41.675781 32.074219 41.550781 C 31.648438 41.273438 31.851562 40.449219 32.398438 40.226562 C 32.648438 40.125 32.726562 40.023438 32.523438 40.023438 C 32.25 40 32.25 39.925781 32.5 39.625 C 33.023438 38.976562 32.523438 39.226562 31.726562 40 Z M 31.726562 40 "/>
<path style=" stroke:none;fill-rule:nonzero;fill:rgb(0%,0%,0%);fill-opacity:1;" d="M 20.75 53.699219 C 20.75 53.800781 21 54.175781 21.324219 54.550781 C 21.625 54.898438 22.074219 55.449219 22.324219 55.726562 C 22.550781 56.023438 22.75 56.351562 22.75 56.476562 C 22.75 56.800781 25.148438 59.25 25.476562 59.25 C 25.625 59.25 25.75 59.351562 25.75 59.449219 C 25.75 59.550781 26.050781 59.773438 26.449219 59.949219 C 26.824219 60.125 27.398438 60.398438 27.75 60.601562 C 28.101562 60.800781 28.726562 61.074219 29.125 61.25 C 29.550781 61.425781 30.25 61.726562 30.699219 61.949219 C 31.625 62.375 34.800781 62.550781 35.574219 62.199219 C 35.851562 62.050781 36 62.074219 36 62.300781 C 36 62.523438 36.050781 62.550781 36.199219 62.351562 C 36.300781 62.175781 36.925781 62.050781 37.625 62.074219 C 39.699219 62.101562 40.75 62 40.75 61.800781 C 40.75 61.550781 36.773438 61.601562 33.800781 61.875 C 32.25 62 31.800781 61.949219 30.925781 61.523438 C 30.023438 61.101562 28.726562 60.675781 28.25 60.625 C 28.175781 60.625 27.550781 60.175781 26.875 59.625 C 26.199219 59.074219 25.523438 58.550781 25.375 58.449219 C 24.375 57.75 23 56.375 23 56.074219 C 23 55.875 22.5 55.226562 21.875 54.601562 C 21.25 54 20.75 53.601562 20.75 53.699219 Z M 20.75 53.699219 "/>
<path style=" stroke:none;fill-rule:nonzero;fill:rgb(0%,0%,0%);fill-opacity:1;" d="M 56.324219 55.601562 C 56 55.773438 55.824219 55.976562 55.898438 56.074219 C 56.101562 56.273438 57.5 55.75 57.5 55.476562 C 57.5 55.175781 57 55.226562 56.324219 55.601562 Z M 56.324219 55.601562 "/>
<path style=" stroke:none;fill-rule:nonzero;fill:rgb(0%,0%,0%);fill-opacity:1;" d="M 49.875 59 L 49.125 59.199219 L 49.875 59.199219 C 50.300781 59.199219 50.898438 59.101562 51.25 59 L 51.875 58.800781 L 51.25 58.800781 C 50.898438 58.800781 50.300781 58.898438 49.875 59 Z M 49.875 59 "/>
<path style=" stroke:none;fill-rule:nonzero;fill:rgb(0%,0%,0%);fill-opacity:1;" d="M 47.273438 59.574219 C 47.125 59.976562 47 60.375 47 60.5 C 47 60.625 46.800781 60.851562 46.574219 60.976562 C 46.324219 61.125 46.25 61.226562 46.375 61.226562 C 46.75 61.25 47.648438 60.449219 47.824219 59.976562 C 47.898438 59.75 47.851562 59.425781 47.75 59.226562 C 47.574219 58.976562 47.476562 59.050781 47.273438 59.574219 Z M 47.273438 59.574219 "/>
<path style=" stroke:none;fill-rule:nonzero;fill:rgb(0%,0%,0%);fill-opacity:1;" d="M 41.273438 61.851562 C 41.5 62.074219 44.425781 62.199219 44.75 62 C 44.925781 61.898438 44.175781 61.800781 43.101562 61.773438 C 42.023438 61.75 41.199219 61.800781 41.273438 61.851562 Z M 41.273438 61.851562 "/>
</g>
</svg>
