<?xml version="1.0" encoding="utf-8" ?>
<svg baseProfile="full" height="225" version="1.1" width="225" xmlns="http://www.w3.org/2000/svg" xmlns:ev="http://www.w3.org/2001/xml-events" xmlns:xlink="http://www.w3.org/1999/xlink"><defs /><polygon fill="white" points="140.8,141.0 141.0,140.8 141.8,140.0 142.0,139.8 143.0,139.8 143.8,139.0 143.8,138.0 144.0,137.8 144.8,137.0 144.8,136.0 144.8,135.0 144.0,134.2 143.8,134.0 143.0,133.2 142.8,133.0 142.8,132.0 142.0,131.2 141.8,131.0 141.0,130.2 140.8,130.0 140.8,129.0 140.0,128.2 139.8,128.0 139.0,127.2 138.8,127.0 138.8,126.0 138.0,125.2 137.8,125.0 137.0,124.2 136.8,124.0 136.8,123.0 136.0,122.2 135.8,122.0 135.0,121.2 134.8,121.0 134.8,120.0 134.0,119.2 133.8,119.0 133.8,118.0 133.0,117.2 132.8,117.0 132.0,116.2 131.8,116.0 131.8,115.0 131.0,114.2 130.8,114.0 130.0,113.2 129.8,113.0 129.8,112.0 129.0,111.2 128.8,111.0 128.8,110.0 128.0,109.2 127.8,109.0 127.0,108.2 126.8,108.0 126.8,107.0 126.0,106.2 125.8,106.0 125.0,105.2 124.8,105.0 124.8,104.0 124.0,103.2 123.8,103.0 123.8,102.0 123.0,101.2 122.8,101.0 122.0,100.2 121.8,100.0 121.8,99.0 121.0,98.2 120.8,98.0 120.8,97.0 120.0,96.2 119.8,96.0 119.8,95.0 119.0,94.2 118.8,94.0 118.8,93.0 118.8,92.0 118.0,91.2 117.8,91.0 117.8,90.0 117.8,89.0 117.8,88.0 118.0,87.8 118.8,87.0 118.8,86.0 118.0,85.2 117.8,85.0 117.0,84.2 116.8,84.0 116.0,83.2 115.8,83.0 115.0,82.2 114.8,82.0 114.0,81.2 113.8,81.0 113.8,80.0 113.0,79.2 112.8,79.0 112.8,78.0 112.0,77.2 111.8,77.0 111.8,76.0 111.8,75.0 111.8,74.0 112.0,73.8 112.2,74.0 112.2,75.0 113.0,75.8 113.2,76.0 114.0,76.8 114.2,77.0 114.2,78.0 115.0,78.8 115.2,79.0 115.2,80.0 116.0,80.8 116.2,81.0 117.0,81.8 117.2,82.0 118.0,82.8 119.0,82.8 119.2,83.0 120.0,83.8 121.0,83.8 122.0,83.8 122.2,84.0 123.0,84.8 124.0,84.8 125.0,84.8 126.0,84.8 126.2,85.0 127.0,85.8 128.0,85.8 129.0,85.8 129.2,86.0 130.0,86.8 131.0,86.8 132.0,86.8 132.2,87.0 133.0,87.8 134.0,87.8 134.2,88.0 135.0,88.8 135.2,89.0 136.0,89.8 137.0,89.8 137.2,90.0 138.0,90.8 138.2,91.0 139.0,91.8 140.0,91.8 140.2,92.0 141.0,92.8 141.2,93.0 142.0,93.8 142.8,93.0 142.8,92.0 143.0,91.8 143.8,91.0 144.0,90.8 145.0,90.8 145.8,90.0 146.0,89.8 147.0,89.8 148.0,89.8 148.8,89.0 149.0,88.8 149.8,88.0 150.0,87.8 151.0,87.8 151.8,87.0 151.8,86.0 151.8,85.0 152.0,84.8 152.8,84.0 152.8,83.0 152.8,82.0 152.8,81.0 152.8,80.0 152.8,79.0 152.8,78.0 152.0,77.2 151.8,77.0 151.0,76.2 150.8,76.0 150.0,75.2 149.8,75.0 149.0,74.2 148.8,74.0 148.0,73.2 147.8,73.0 147.0,72.2 146.8,72.0 146.8,71.0 146.0,70.2 145.8,70.0 145.0,69.2 144.8,69.0 144.0,68.2 143.8,68.0 143.0,67.2 142.8,67.0 142.0,66.2 141.8,66.0 141.8,65.0 141.0,64.2 140.8,64.0 140.0,63.2 139.8,63.0 139.0,62.2 138.8,62.0 138.0,61.2 137.8,61.0 137.8,60.0 137.0,59.2 136.8,59.0 136.0,58.2 135.8,58.0 135.8,57.0 135.0,56.2 134.8,56.0 134.8,55.0 134.0,54.2 133.8,54.0 133.0,53.2 132.0,53.2 131.8,53.0 131.0,52.2 130.0,52.2 129.8,52.0 129.0,51.2 128.0,51.2 127.8,51.0 127.0,50.2 126.0,50.2 125.0,50.2 124.0,50.2 123.8,50.0 123.0,49.2 122.0,49.2 121.0,49.2 120.8,49.0 120.8,48.0 120.8,47.0 121.0,46.8 121.8,46.0 121.8,45.0 121.8,44.0 121.8,43.0 121.8,42.0 121.8,41.0 121.8,40.0 121.8,39.0 121.8,38.0 121.0,37.2 120.2,38.0 120.0,38.2 119.2,39.0 119.0,39.2 118.0,39.2 117.2,40.0 117.0,40.2 116.0,40.2 115.2,41.0 115.0,41.2 114.2,42.0 114.0,42.2 113.0,42.2 112.2,43.0 112.0,43.2 111.2,44.0 111.0,44.2 110.0,44.2 109.2,45.0 109.0,45.2 108.2,46.0 108.0,46.2 107.2,47.0 107.0,47.2 106.2,48.0 106.0,48.2 105.2,49.0 105.0,49.2 104.2,50.0 104.0,50.2 103.2,51.0 103.0,51.2 102.2,52.0 102.0,52.2 101.2,53.0 101.2,54.0 101.0,54.2 100.2,55.0 100.0,55.2 99.2,56.0 99.0,56.2 98.2,57.0 98.2,58.0 98.0,58.2 97.2,59.0 97.0,59.2 96.2,60.0 96.2,61.0 96.0,61.2 95.2,62.0 95.2,63.0 95.0,63.2 94.2,64.0 94.0,64.2 93.2,65.0 93.2,66.0 93.0,66.2 92.2,67.0 92.2,68.0 92.2,69.0 92.0,69.2 91.2,70.0 91.2,71.0 91.0,71.2 90.2,72.0 90.2,73.0 90.2,74.0 90.2,75.0 90.0,75.2 89.2,76.0 89.2,77.0 89.2,78.0 89.2,79.0 89.0,79.2 88.2,80.0 88.2,81.0 88.2,82.0 88.2,83.0 88.0,83.2 87.2,84.0 87.2,85.0 87.2,86.0 87.2,87.0 87.2,88.0 87.2,89.0 87.0,89.2 86.2,90.0 86.2,91.0 86.2,92.0 86.2,93.0 86.2,94.0 86.0,94.2 85.2,95.0 85.2,96.0 85.2,97.0 85.2,98.0 85.2,99.0 85.2,100.0 85.2,101.0 85.2,102.0 85.0,102.2 84.2,103.0 84.2,104.0 84.2,105.0 84.2,106.0 84.2,107.0 84.2,108.0 84.2,109.0 84.2,110.0 84.2,111.0 84.0,111.2 83.2,112.0 83.2,113.0 83.2,114.0 83.2,115.0 83.2,116.0 83.2,117.0 83.2,118.0 83.2,119.0 83.2,120.0 83.2,121.0 83.0,121.2 82.2,122.0 82.2,123.0 82.2,124.0 82.2,125.0 82.2,126.0 82.2,127.0 82.2,128.0 82.2,129.0 82.2,130.0 82.2,131.0 82.2,132.0 82.2,133.0 82.2,134.0 83.0,134.8 83.2,135.0 84.0,135.8 84.2,136.0 85.0,136.8 85.2,137.0 86.0,137.8 86.2,138.0 87.0,138.8 87.2,139.0 88.0,139.8 88.2,140.0 89.0,140.8 89.2,141.0 90.0,141.8 91.0,141.8 92.0,141.8 93.0,141.8 94.0,141.8 95.0,141.8 96.0,141.8 97.0,141.8 98.0,141.8 99.0,141.8 100.0,141.8 101.0,141.8 102.0,141.8 103.0,141.8 104.0,141.8 105.0,141.8 106.0,141.8 107.0,141.8 108.0,141.8 109.0,141.8 110.0,141.8 111.0,141.8 112.0,141.8 113.0,141.8 114.0,141.8 115.0,141.8 116.0,141.8 117.0,141.8 118.0,141.8 119.0,141.8 120.0,141.8 121.0,141.8 122.0,141.8 123.0,141.8 124.0,141.8 125.0,141.8 126.0,141.8 127.0,141.8 128.0,141.8 129.0,141.8 130.0,141.8 131.0,141.8 132.0,141.8 133.0,141.8 134.0,141.8 135.0,141.8 136.0,141.8 137.0,141.8 138.0,141.8 139.0,141.8 140.0,141.8 140.8,141.0" /><polygon fill="white" points="75.8,132.0 76.0,131.8 77.0,131.8 78.0,131.8 79.0,131.8 79.8,131.0 79.8,130.0 79.8,129.0 79.8,128.0 79.8,127.0 80.0,126.8 80.8,126.0 80.8,125.0 80.8,124.0 80.8,123.0 80.8,122.0 80.8,121.0 81.0,120.8 81.8,120.0 81.8,119.0 81.8,118.0 81.8,117.0 81.8,116.0 81.8,115.0 81.8,114.0 81.8,113.0 81.8,112.0 81.8,111.0 81.8,110.0 82.0,109.8 82.8,109.0 82.8,108.0 82.8,107.0 82.8,106.0 82.8,105.0 82.8,104.0 82.8,103.0 82.8,102.0 83.0,101.8 83.8,101.0 83.8,100.0 83.8,99.0 83.8,98.0 83.8,97.0 83.8,96.0 83.8,95.0 84.0,94.8 84.8,94.0 84.8,93.0 84.8,92.0 84.8,91.0 84.8,90.0 84.8,89.0 84.8,88.0 85.0,87.8 85.8,87.0 85.8,86.0 85.8,85.0 85.8,84.0 86.0,83.8 86.8,83.0 86.8,82.0 86.8,81.0 86.8,80.0 86.8,79.0 87.0,78.8 87.8,78.0 87.8,77.0 87.8,76.0 87.8,75.0 88.0,74.8 88.8,74.0 88.8,73.0 88.8,72.0 89.0,71.8 89.8,71.0 89.8,70.0 89.8,69.0 90.0,68.8 90.8,68.0 90.8,67.0 91.0,66.8 91.8,66.0 91.8,65.0 92.0,64.8 92.8,64.0 92.8,63.0 93.0,62.8 93.8,62.0 94.0,61.8 94.8,61.0 94.8,60.0 95.0,59.8 95.8,59.0 95.8,58.0 96.0,57.8 96.8,57.0 97.0,56.8 97.8,56.0 97.8,55.0 98.0,54.8 98.8,54.0 99.0,53.8 99.8,53.0 100.0,52.8 100.8,52.0 100.8,51.0 100.0,50.2 99.2,51.0 99.0,51.2 98.0,51.2 97.0,51.2 96.2,52.0 96.0,52.2 95.0,52.2 94.2,53.0 94.0,53.2 93.2,54.0 93.0,54.2 92.0,54.2 91.2,55.0 91.0,55.2 90.2,56.0 90.0,56.2 89.0,56.2 88.2,57.0 88.0,57.2 87.2,58.0 87.2,59.0 87.0,59.2 86.2,60.0 86.0,60.2 85.2,61.0 85.2,62.0 85.0,62.2 84.2,63.0 84.2,64.0 84.0,64.2 83.2,65.0 83.2,66.0 83.2,67.0 83.0,67.2 82.2,68.0 82.2,69.0 82.2,70.0 82.0,70.2 81.2,71.0 81.2,72.0 81.2,73.0 81.0,73.2 80.2,74.0 80.2,75.0 80.2,76.0 80.0,76.2 79.2,77.0 79.2,78.0 79.2,79.0 79.2,80.0 79.2,81.0 79.0,81.2 78.2,82.0 78.2,83.0 78.2,84.0 78.2,85.0 78.0,85.2 77.2,86.0 77.2,87.0 77.2,88.0 77.2,89.0 77.2,90.0 77.2,91.0 77.0,91.2 76.2,92.0 76.2,93.0 76.2,94.0 76.2,95.0 76.0,95.2 75.2,96.0 75.2,97.0 75.2,98.0 75.2,99.0 75.2,100.0 75.2,101.0 75.2,102.0 75.0,102.2 74.2,103.0 74.2,104.0 74.2,105.0 74.2,106.0 74.2,107.0 74.2,108.0 74.2,109.0 74.2,110.0 74.0,110.2 73.2,111.0 73.2,112.0 73.2,113.0 73.2,114.0 73.2,115.0 73.2,116.0 73.2,117.0 73.0,117.2 72.2,118.0 72.2,119.0 72.2,120.0 72.2,121.0 72.2,122.0 72.2,123.0 72.2,124.0 72.2,125.0 72.2,126.0 72.2,127.0 72.0,127.2 71.2,128.0 71.2,129.0 71.2,130.0 71.2,131.0 71.2,132.0 72.0,132.8 73.0,132.8 74.0,132.8 75.0,132.8 75.8,132.0" /><polygon fill="white" points="111.0,73.2 110.8,73.0 111.0,72.8 111.2,73.0 111.0,73.2" /><polygon fill="white" points="140.8,155.0 140.8,154.0 140.8,153.0 141.0,152.8 141.8,152.0 141.8,151.0 141.8,150.0 142.0,149.8 142.8,149.0 143.0,148.8 143.8,148.0 143.0,147.2 142.8,147.0 142.0,146.2 141.8,146.0 141.0,145.2 140.0,145.2 139.0,145.2 138.0,145.2 137.0,145.2 136.0,145.2 135.0,145.2 134.0,145.2 133.0,145.2 132.0,145.2 131.0,145.2 130.0,145.2 129.0,145.2 128.0,145.2 127.0,145.2 126.0,145.2 125.0,145.2 124.0,145.2 123.0,145.2 122.0,145.2 121.0,145.2 120.0,145.2 119.0,145.2 118.0,145.2 117.0,145.2 116.0,145.2 115.0,145.2 114.0,145.2 113.0,145.2 112.0,145.2 111.0,145.2 110.0,145.2 109.0,145.2 108.0,145.2 107.0,145.2 106.0,145.2 105.0,145.2 104.0,145.2 103.0,145.2 102.0,145.2 101.0,145.2 100.0,145.2 99.0,145.2 98.0,145.2 97.0,145.2 96.0,145.2 95.0,145.2 94.0,145.2 93.0,145.2 92.0,145.2 91.0,145.2 90.0,145.2 89.0,145.2 88.0,145.2 87.2,146.0 87.0,146.2 86.2,147.0 86.0,147.2 85.2,148.0 86.0,148.8 86.2,149.0 87.0,149.8 87.2,150.0 87.2,151.0 87.2,152.0 87.2,153.0 87.2,154.0 87.2,155.0 88.0,155.8 89.0,155.8 90.0,155.8 91.0,155.8 92.0,155.8 93.0,155.8 94.0,155.8 95.0,155.8 96.0,155.8 97.0,155.8 98.0,155.8 99.0,155.8 100.0,155.8 101.0,155.8 102.0,155.8 103.0,155.8 104.0,155.8 105.0,155.8 106.0,155.8 107.0,155.8 108.0,155.8 109.0,155.8 110.0,155.8 111.0,155.8 112.0,155.8 113.0,155.8 114.0,155.8 115.0,155.8 116.0,155.8 117.0,155.8 118.0,155.8 119.0,155.8 120.0,155.8 121.0,155.8 122.0,155.8 123.0,155.8 124.0,155.8 125.0,155.8 126.0,155.8 127.0,155.8 128.0,155.8 129.0,155.8 130.0,155.8 131.0,155.8 132.0,155.8 133.0,155.8 134.0,155.8 135.0,155.8 136.0,155.8 137.0,155.8 138.0,155.8 139.0,155.8 140.0,155.8 140.8,155.0" /><polygon fill="white" points="139.8,174.0 139.8,173.0 140.0,172.8 140.8,172.0 141.0,171.8 141.8,171.0 142.0,170.8 142.8,170.0 142.8,169.0 142.8,168.0 143.0,167.8 143.8,167.0 143.8,166.0 143.8,165.0 143.0,164.2 142.8,164.0 142.8,163.0 142.0,162.2 141.8,162.0 141.0,161.2 140.8,161.0 140.0,160.2 139.8,160.0 139.0,159.2 138.8,159.0 138.0,158.2 137.2,159.0 137.0,159.2 136.0,159.2 135.0,159.2 134.8,159.0 134.0,158.2 133.0,158.2 132.0,158.2 131.0,158.2 130.0,158.2 129.0,158.2 128.0,158.2 127.0,158.2 126.0,158.2 125.0,158.2 124.0,158.2 123.0,158.2 122.0,158.2 121.0,158.2 120.0,158.2 119.2,159.0 119.0,159.2 118.0,159.2 117.0,159.2 116.0,159.2 115.0,159.2 114.0,159.2 113.0,159.2 112.0,159.2 111.0,159.2 110.0,159.2 109.0,159.2 108.0,159.2 107.0,159.2 106.0,159.2 105.0,159.2 104.8,159.0 104.0,158.2 103.0,158.2 102.0,158.2 101.0,158.2 100.0,158.2 99.0,158.2 98.0,158.2 97.0,158.2 96.0,158.2 95.0,158.2 94.0,158.2 93.0,158.2 92.0,158.2 91.0,158.2 90.0,158.2 89.2,159.0 89.0,159.2 88.2,160.0 88.0,160.2 87.2,161.0 87.0,161.2 86.2,162.0 86.2,163.0 86.0,163.2 85.2,164.0 85.2,165.0 85.2,166.0 85.2,167.0 85.2,168.0 85.2,169.0 86.0,169.8 86.2,170.0 86.2,171.0 87.0,171.8 87.2,172.0 88.0,172.8 88.2,173.0 89.0,173.8 89.2,174.0 90.0,174.8 91.0,174.8 92.0,174.8 93.0,174.8 94.0,174.8 95.0,174.8 96.0,174.8 97.0,174.8 98.0,174.8 99.0,174.8 100.0,174.8 101.0,174.8 102.0,174.8 103.0,174.8 104.0,174.8 105.0,174.8 106.0,174.8 107.0,174.8 108.0,174.8 109.0,174.8 110.0,174.8 111.0,174.8 112.0,174.8 113.0,174.8 114.0,174.8 115.0,174.8 116.0,174.8 117.0,174.8 118.0,174.8 119.0,174.8 120.0,174.8 121.0,174.8 122.0,174.8 123.0,174.8 124.0,174.8 125.0,174.8 126.0,174.8 127.0,174.8 128.0,174.8 129.0,174.8 130.0,174.8 131.0,174.8 132.0,174.8 133.0,174.8 134.0,174.8 135.0,174.8 136.0,174.8 137.0,174.8 138.0,174.8 139.0,174.8 139.8,174.0" /><polygon fill="white" points="146.8,186.0 146.8,185.0 146.8,184.0 146.8,183.0 146.8,182.0 146.8,181.0 146.8,180.0 146.8,179.0 146.0,178.2 145.0,178.2 144.0,178.2 143.0,178.2 142.0,178.2 141.0,178.2 140.0,178.2 139.0,178.2 138.0,178.2 137.0,178.2 136.0,178.2 135.0,178.2 134.0,178.2 133.0,178.2 132.0,178.2 131.0,178.2 130.0,178.2 129.0,178.2 128.0,178.2 127.0,178.2 126.0,178.2 125.0,178.2 124.0,178.2 123.0,178.2 122.0,178.2 121.0,178.2 120.0,178.2 119.0,178.2 118.0,178.2 117.0,178.2 116.0,178.2 115.0,178.2 114.0,178.2 113.0,178.2 112.0,178.2 111.0,178.2 110.0,178.2 109.0,178.2 108.0,178.2 107.0,178.2 106.0,178.2 105.0,178.2 104.0,178.2 103.0,178.2 102.0,178.2 101.0,178.2 100.0,178.2 99.0,178.2 98.0,178.2 97.0,178.2 96.0,178.2 95.0,178.2 94.0,178.2 93.0,178.2 92.0,178.2 91.0,178.2 90.0,178.2 89.0,178.2 88.0,178.2 87.0,178.2 86.0,178.2 85.0,178.2 84.0,178.2 83.0,178.2 82.0,178.2 81.0,178.2 80.2,179.0 80.2,180.0 80.2,181.0 80.2,182.0 80.2,183.0 80.2,184.0 80.2,185.0 80.2,186.0 81.0,186.8 82.0,186.8 83.0,186.8 84.0,186.8 85.0,186.8 86.0,186.8 87.0,186.8 88.0,186.8 89.0,186.8 90.0,186.8 91.0,186.8 92.0,186.8 93.0,186.8 94.0,186.8 95.0,186.8 96.0,186.8 97.0,186.8 98.0,186.8 99.0,186.8 100.0,186.8 101.0,186.8 102.0,186.8 103.0,186.8 104.0,186.8 105.0,186.8 106.0,186.8 107.0,186.8 108.0,186.8 109.0,186.8 110.0,186.8 111.0,186.8 112.0,186.8 113.0,186.8 114.0,186.8 115.0,186.8 116.0,186.8 117.0,186.8 118.0,186.8 119.0,186.8 120.0,186.8 121.0,186.8 122.0,186.8 123.0,186.8 124.0,186.8 125.0,186.8 126.0,186.8 127.0,186.8 128.0,186.8 129.0,186.8 130.0,186.8 131.0,186.8 132.0,186.8 133.0,186.8 134.0,186.8 135.0,186.8 136.0,186.8 137.0,186.8 138.0,186.8 139.0,186.8 140.0,186.8 141.0,186.8 142.0,186.8 143.0,186.8 144.0,186.8 145.0,186.8 146.0,186.8 146.8,186.0" /></svg>