<?xml version="1.0" standalone="no"?>
<!DOCTYPE svg PUBLIC "-//W3C//DTD SVG 20010904//EN"
 "http://www.w3.org/TR/2001/REC-SVG-20010904/DTD/svg10.dtd">
<svg version="1.0" xmlns="http://www.w3.org/2000/svg"
 width="53.87" height="43.61" viewBox="0 0 300 300"
 preserveAspectRatio="xMidYMid meet">
<metadata>
Created by potrace 1.10, written by Peter Selinger 2001-2011
</metadata>
<g transform="translate(0.000000,300.000000) scale(0.100000,-0.100000)"
fill="#000000" stroke="none">
<path d="M895 2664 c-97 -19 -143 -33 -225 -66 -120 -49 -157 -69 -250 -134
-111 -78 -222 -204 -310 -354 -38 -64 -100 -249 -100 -297 0 -58 17 -30 64
108 44 126 75 187 151 294 50 71 169 186 240 233 l50 33 5 -58 c3 -38 13 -69
28 -90 28 -40 122 -87 178 -89 23 -1 47 -5 53 -8 11 -7 73 0 101 12 8 3 26 7
40 8 21 2 19 -1 -14 -19 -195 -110 -341 -233 -448 -377 -69 -93 -97 -149 -136
-270 -43 -137 -56 -249 -50 -457 l5 -178 -25 31 c-63 79 -133 221 -184 378
-52 158 -53 160 -56 110 -3 -54 39 -205 82 -294 45 -93 127 -227 178 -290 70
-86 150 -160 174 -159 14 0 15 2 4 6 -28 11 -81 73 -101 118 -24 54 -49 228
-49 343 0 186 49 406 122 539 45 84 150 214 212 266 28 23 53 44 56 47 21 23
159 109 219 137 94 43 291 109 354 118 26 4 47 10 47 14 0 3 58 7 128 9 137 3
287 -12 341 -34 30 -12 32 -12 21 1 -7 8 -19 15 -26 15 -8 0 -40 9 -72 20 -60
22 -98 31 -237 61 -107 23 -143 28 -231 28 -114 1 -178 -17 -241 -69 -84 -70
-217 -91 -326 -50 -74 28 -110 67 -110 120 0 35 7 48 44 86 51 52 201 129 269
138 44 6 95 27 60 25 -8 -1 -24 -3 -35 -5z m310 -286 c-6 -29 -55 -80 -55 -56
0 9 -7 19 -16 22 -12 5 -15 2 -10 -10 4 -10 2 -14 -6 -11 -7 2 -12 10 -10 16
1 7 -2 10 -8 6 -14 -9 -13 -21 5 -39 8 -8 11 -17 6 -20 -5 -3 -14 1 -21 9 -9
11 -17 12 -31 4 -11 -5 -17 -15 -13 -21 4 -6 -1 -8 -15 -3 -16 5 -27 1 -36
-12 -8 -10 -15 -13 -15 -6 0 7 -6 10 -14 7 -8 -3 -17 -1 -20 5 -4 6 5 13 19
17 14 3 30 14 35 23 8 14 11 14 20 1 8 -13 10 -13 10 3 0 9 8 17 18 17 14 0
15 2 2 10 -12 8 -11 10 7 10 12 0 24 4 27 9 3 4 17 6 31 4 35 -7 75 5 75 22 0
8 4 15 9 15 6 0 8 -10 6 -22z m60 -8 c5 -8 11 -7 20 0 15 13 35 6 35 -12 0 -5
-7 -8 -14 -5 -11 4 -13 1 -9 -11 6 -16 5 -16 -11 1 -30 29 -63 21 -57 -15 0
-5 -3 -8 -9 -8 -14 0 -12 12 6 38 17 24 29 28 39 12z"/>
<path d="M1332 2264 c-112 -18 -310 -76 -372 -110 -85 -46 -203 -142 -230
-186 -14 -24 -34 -79 -43 -122 -10 -44 -27 -94 -38 -112 -27 -44 -106 -109
-157 -130 -54 -21 -85 -72 -118 -191 -72 -262 -17 -556 133 -707 186 -187 652
-396 888 -398 80 -1 175 30 199 64 14 20 16 20 56 4 56 -22 65 -21 145 19 45
22 95 38 140 45 43 6 91 21 129 40 32 18 85 39 115 49 84 26 198 97 267 165
96 97 168 246 195 409 16 97 2 210 -41 327 -36 98 -72 169 -77 153 -2 -6 5
-29 16 -50 31 -62 61 -203 61 -290 0 -107 -40 -250 -82 -295 -7 -7 -31 -40
-53 -73 -51 -77 -123 -144 -185 -173 -19 -9 -41 -24 -48 -35 -8 -10 -19 -16
-25 -14 -6 2 -21 -5 -31 -15 -11 -10 -26 -16 -32 -14 -7 3 -15 -2 -18 -10 -3
-8 -12 -14 -20 -14 -8 0 -27 -7 -43 -14 -15 -8 -36 -17 -46 -20 -9 -3 -22 -17
-27 -31 -8 -22 -14 -24 -49 -21 -27 3 -41 0 -45 -10 -4 -11 -11 -11 -32 -4
-30 12 -34 10 -38 -17 -3 -19 -36 -32 -36 -14 0 5 -9 9 -20 8 -25 -2 -26 -14
-2 -20 9 -3 2 -5 -15 -6 -18 0 -33 -6 -33 -12 0 -8 -5 -8 -15 1 -8 7 -15 9
-15 5 0 -4 -7 -2 -15 5 -12 10 -15 10 -15 0 0 -8 -8 -10 -25 -6 -18 5 -32 0
-48 -14 -19 -18 -22 -19 -25 -5 -2 10 -10 14 -20 11 -34 -11 -142 -14 -148 -5
-3 5 -10 6 -16 3 -12 -8 -90 16 -100 30 -3 5 -17 10 -30 12 -29 3 -50 8 -63
15 -5 3 -31 12 -57 19 -61 16 -172 109 -232 193 -49 69 -106 171 -106 190 0 6
-7 26 -16 42 -21 41 -37 185 -29 268 12 124 83 298 162 393 71 85 189 176 289
225 166 80 317 85 499 16 127 -48 232 -164 249 -275 13 -89 -47 -164 -152
-187 -32 -6 -32 -8 -31 -56 2 -42 -2 -54 -26 -79 -63 -65 -174 -56 -213 17
-12 22 -7 53 9 53 4 0 6 -6 3 -14 -3 -7 5 -26 18 -41 19 -21 35 -29 74 -32 60
-6 98 19 113 74 28 102 -101 179 -249 149 -128 -27 -210 -146 -171 -249 5 -13
35 -52 66 -86 52 -56 61 -61 99 -61 26 0 60 -11 95 -30 l54 -30 71 35 c39 19
96 41 126 49 133 36 160 47 236 97 101 67 157 135 178 215 9 36 25 67 39 80
36 31 52 153 37 282 -9 79 -18 111 -49 172 -21 41 -44 74 -50 72 -7 -1 -10 2
-6 8 9 14 -92 108 -160 150 -72 43 -191 84 -317 110 -114 24 -268 25 -406 4z
m294 -24 c8 0 12 4 9 10 -3 5 13 3 36 -5 23 -9 60 -16 81 -17 32 -1 37 -4 32
-20 -3 -10 -1 -18 5 -18 6 0 11 9 11 21 0 18 2 19 15 5 18 -18 20 -30 3 -20
-10 5 -10 4 -1 -6 7 -8 19 -10 30 -5 28 12 44 14 38 5 -3 -5 3 -13 12 -19 16
-9 16 -10 -4 -11 -12 0 -24 6 -26 13 -4 7 -6 6 -6 -4 -1 -11 9 -18 29 -21 32
-5 46 12 27 32 -9 9 -6 9 10 -1 11 -7 19 -18 16 -25 -5 -15 28 -93 39 -94 10
0 -2 31 -20 52 -16 19 -10 48 10 47 10 0 10 -2 1 -6 -25 -9 -13 -19 20 -16 17
2 26 0 20 -3 -7 -3 -13 -13 -13 -21 0 -13 3 -13 15 -3 13 10 19 10 33 -4 10
-9 25 -16 33 -17 8 0 6 -4 -6 -9 -18 -8 -18 -9 -2 -9 10 -1 20 -8 24 -16 5
-14 7 -14 22 -1 14 13 17 12 28 -10 9 -20 8 -24 -4 -24 -8 0 -11 5 -8 10 7 12
-5 13 -21 2 -10 -6 -16 -42 -7 -42 2 0 12 6 23 12 27 17 54 0 58 -36 4 -29 0
-31 -27 -14 -15 9 -24 8 -45 -5 -14 -10 -26 -25 -26 -33 0 -11 -6 -14 -16 -10
-8 3 -12 2 -9 -4 3 -6 13 -10 21 -10 8 0 14 -7 14 -16 0 -8 4 -13 9 -9 5 3 7
20 4 39 -4 28 -2 34 16 39 12 3 21 1 21 -5 0 -5 4 -7 9 -3 5 3 12 1 15 -4 3
-5 -1 -11 -9 -15 -8 -3 -15 -10 -15 -15 0 -6 7 -7 17 -4 10 4 14 2 9 -5 -3 -6
-2 -13 3 -16 5 -4 13 -1 17 5 3 6 0 15 -7 20 -12 7 -11 11 4 26 16 16 17 16
17 0 0 -10 8 -17 20 -17 11 0 20 -5 20 -11 0 -5 -5 -7 -11 -3 -8 4 -9 -1 -3
-17 4 -13 7 -29 7 -36 0 -7 4 -10 9 -7 5 4 7 13 3 21 -4 13 -3 14 10 3 11 -9
12 -16 5 -25 -8 -9 -7 -15 2 -19 7 -3 1 -4 -14 -2 -35 4 -37 -11 -3 -20 14 -3
25 -11 25 -16 0 -5 -6 -8 -12 -5 -7 2 -21 0 -30 -5 -23 -11 -25 -68 -2 -68 8
0 12 -4 9 -10 -10 -16 5 -12 23 6 12 12 17 13 20 4 6 -18 -19 -31 -50 -24 -22
4 -28 2 -28 -11 0 -17 11 -17 59 -4 7 2 16 -2 19 -10 2 -8 0 -11 -6 -8 -5 4
-15 0 -22 -9 -7 -8 -20 -12 -27 -10 -11 4 -13 0 -8 -14 4 -11 2 -20 -4 -20 -6
0 -11 5 -11 10 0 6 -8 5 -20 -2 -11 -7 -20 -20 -20 -28 1 -12 3 -12 14 3 17
23 26 22 26 -3 0 -17 5 -15 35 16 20 20 39 33 43 30 3 -4 0 -11 -7 -16 -8 -4
-12 -17 -8 -29 3 -14 0 -21 -9 -21 -8 0 -14 -4 -14 -10 0 -5 7 -7 15 -4 10 4
15 0 15 -11 0 -9 -4 -14 -9 -11 -13 8 -48 -54 -66 -118 -39 -135 -160 -220
-410 -291 -33 -9 -81 -28 -107 -42 l-48 -26 -59 27 c-32 14 -70 26 -83 26 -32
0 -103 51 -128 93 -43 70 -14 162 65 202 22 11 42 23 45 26 3 3 30 5 60 4 59
-2 138 -29 157 -54 34 -43 -3 -101 -63 -101 -28 0 -42 8 -68 36 -38 42 -60 41
-77 -2 -7 -20 -7 -29 3 -35 7 -4 10 -11 6 -14 -10 -11 34 -56 69 -71 42 -18
107 -18 142 1 45 23 81 72 81 110 0 37 21 60 47 51 15 -5 14 -3 -2 9 -19 15
-19 15 5 11 14 -2 24 -9 23 -15 -2 -6 4 -11 13 -11 8 0 13 4 10 8 -6 11 22 52
35 52 12 0 44 30 32 30 -4 0 -1 5 7 10 12 8 12 10 1 10 -8 0 -3 9 12 21 20 15
31 18 45 10 14 -7 18 -6 18 9 0 13 -4 16 -12 10 -14 -12 -24 -3 -24 22 0 11
-4 16 -10 13 -6 -3 -7 1 -4 9 3 9 10 16 15 16 5 0 9 10 9 23 -1 21 -1 21 -15
3 -8 -11 -17 -17 -21 -14 -6 6 24 45 63 83 13 12 20 25 16 28 -7 7 -59 -44
-56 -55 1 -3 -4 -8 -11 -11 -10 -4 -13 2 -11 21 3 25 2 25 -12 7 -14 -19 -15
-17 -11 22 3 33 1 39 -9 31 -19 -16 -17 10 2 29 9 8 13 18 9 22 -4 3 -9 0 -11
-6 -3 -7 -11 -13 -19 -13 -9 0 -12 5 -9 11 4 6 0 9 -8 7 -9 -2 -16 2 -16 7 -1
6 4 10 11 10 6 0 13 5 15 12 3 9 -4 10 -29 2 -41 -11 -47 -11 -28 1 13 8 13
10 -1 10 -9 0 -20 7 -23 16 -3 8 -10 13 -15 9 -19 -11 -23 17 -5 31 17 12 17
13 2 8 -10 -3 -18 -1 -18 5 0 6 -4 11 -10 11 -5 0 -10 -8 -10 -17 0 -14 -2
-15 -9 -4 -5 8 -14 10 -22 6 -8 -5 -11 -5 -7 0 15 16 -13 35 -33 24 -19 -10
-24 1 -21 50 0 8 -10 1 -23 -15 -23 -27 -24 -28 -18 -5 4 17 1 28 -12 37 -21
15 -99 19 -91 5 3 -5 -1 -12 -10 -15 -24 -9 -44 -7 -44 5 0 5 5 7 10 4 6 -3
10 -2 10 3 0 6 -7 13 -16 16 -8 3 -12 2 -9 -4 7 -12 -40 -25 -55 -15 -6 4 -9
13 -6 21 3 7 0 11 -7 8 -7 -2 -17 6 -22 18 -11 24 -45 38 -45 18 0 -7 7 -9 17
-6 10 4 14 4 10 0 -4 -4 10 -26 30 -48 32 -34 34 -37 11 -23 -24 15 -28 15
-28 2 0 -11 -7 -13 -30 -9 -20 4 -34 1 -46 -10 -13 -13 -19 -14 -31 -4 -11 9
-16 9 -23 -2 -4 -7 -15 -10 -25 -6 -13 4 -16 2 -11 -9 8 -21 -11 -19 -23 2 -5
10 -13 14 -17 10 -5 -5 -2 -12 5 -16 21 -13 2 -33 -24 -27 -15 4 -25 1 -29 -9
-3 -8 -15 -15 -26 -15 -11 0 -23 -7 -26 -15 -4 -8 -16 -15 -28 -16 -11 0 -15
-3 -8 -6 20 -8 14 -26 -8 -20 -15 4 -20 0 -20 -14 0 -11 -7 -19 -17 -19 -18 0
-108 -92 -155 -158 -44 -64 -94 -177 -119 -273 -28 -102 -29 -279 -3 -357 40
-118 126 -262 203 -341 111 -112 275 -182 478 -206 63 -7 117 -16 120 -18 11
-12 -44 -30 -104 -35 -210 -17 -669 179 -885 377 -110 101 -164 272 -154 486
5 129 23 211 62 287 19 37 35 53 75 74 95 48 184 150 192 220 2 17 6 34 9 39
3 6 8 27 12 48 4 20 11 37 16 37 5 0 6 7 3 17 -5 12 -3 14 7 8 10 -6 12 -4 7
7 -3 10 3 24 15 35 15 12 19 13 14 3 -4 -8 1 -5 12 8 24 26 32 28 32 7 0 -13
8 -15 38 -9 20 3 42 13 49 21 10 13 15 12 37 -2 20 -13 29 -15 40 -6 11 9 17
6 31 -16 l18 -27 18 22 c23 29 33 28 25 -2 -5 -21 -3 -23 26 -20 38 5 59 21
51 40 -3 8 0 14 6 14 6 0 11 -6 11 -14 0 -8 5 -18 11 -22 16 -10 129 -12 123
-2 -3 4 -14 8 -25 8 -11 0 -17 5 -14 10 3 6 -3 10 -14 10 -10 0 -21 -6 -24
-12 -4 -10 -7 -10 -18 0 -11 10 -11 12 0 12 9 0 11 8 8 21 -5 19 -2 21 34 17
24 -2 38 0 36 7 -4 12 -76 15 -78 3 -3 -19 -5 -24 -17 -43 -12 -20 -12 -20
-10 0 2 14 -2 20 -14 19 -10 -1 -18 5 -18 13 0 10 7 14 20 10 11 -3 20 -2 20
3 0 10 -26 20 -55 20 -13 0 -30 7 -39 15 -8 8 -22 15 -30 15 -10 0 -13 6 -10
15 4 8 1 15 -6 15 -6 0 -8 -4 -5 -10 3 -5 1 -10 -5 -10 -6 0 -8 -4 -5 -10 3
-5 15 -10 27 -10 14 0 18 -5 14 -16 -4 -12 -1 -14 14 -9 15 5 20 2 21 -12 0
-10 3 -13 6 -5 2 6 11 12 19 12 11 0 11 -5 2 -25 -6 -14 -15 -25 -20 -25 -5 0
-6 5 -2 12 5 8 2 9 -9 5 -9 -3 -22 0 -29 7 -7 7 -22 11 -33 8 -20 -5 -20 -5 0
17 11 12 15 21 10 20 -6 -2 -20 2 -32 9 -17 10 -22 9 -29 -6 -4 -9 -6 -23 -5
-29 1 -7 -5 -13 -14 -13 -8 0 -15 5 -15 10 0 6 -6 10 -14 10 -20 0 -27 25 -12
46 10 12 20 15 41 10 22 -6 26 -4 22 8 -4 9 -2 16 3 16 6 0 10 -4 10 -10 0 -5
5 -10 11 -10 6 0 9 7 5 15 -4 12 1 15 25 13 17 -1 34 -8 36 -15 3 -7 9 -13 14
-13 5 0 4 12 -1 26 -13 33 -13 34 5 28 8 -4 13 -10 10 -14 -3 -5 0 -12 6 -16
8 -5 10 1 7 18 -4 24 -2 25 34 23 23 -2 36 1 32 7 -4 6 2 8 15 3 12 -4 21 -2
21 4 0 6 -5 11 -12 11 -6 0 -9 3 -5 6 3 3 13 2 23 -4 11 -6 13 -12 6 -16 -13
-8 -5 -36 10 -36 6 0 8 6 5 13 -3 9 6 13 29 14 19 1 34 -3 34 -8 0 -5 -12 -9
-27 -9 -24 -1 -26 -2 -10 -11 9 -5 22 -7 27 -4 6 3 10 1 10 -5 0 -17 30 -44
38 -35 4 4 1 10 -5 12 -18 6 -16 23 2 23 8 0 15 7 15 15 0 8 6 15 13 16 9 0 9
2 -1 6 -9 3 -7 10 9 24 12 10 27 19 33 19 6 0 4 -5 -4 -10 -8 -5 -10 -10 -4
-10 6 0 19 10 28 23 9 12 15 16 13 8 -3 -19 84 -16 97 3 8 12 12 12 23 0 8 -8
21 -14 29 -14z m-226 -5 c0 -8 -6 -15 -14 -15 -8 0 -16 -6 -19 -12 -2 -7 -8
-10 -12 -6 -5 5 2 17 15 28 28 24 30 24 30 5z m-469 -178 c-6 -6 -11 -19 -11
-29 0 -14 -8 -18 -35 -18 -34 0 -46 12 -25 25 6 3 10 2 10 -4 0 -6 7 -8 15 -4
9 3 13 8 10 11 -8 9 27 42 37 36 6 -4 6 -10 -1 -17z m39 -6 c0 -5 10 -11 23
-14 19 -3 20 -5 5 -11 -11 -5 -23 -2 -33 7 -17 18 -19 27 -5 27 6 0 10 -4 10
-9z m65 0 c-6 -11 31 -25 44 -16 5 3 12 1 16 -5 3 -5 -2 -11 -12 -12 -51 -4
-56 -2 -59 20 -2 12 1 22 7 22 5 0 8 -4 4 -9z m561 -122 c5 -8 8 -8 14 0 5 9
10 8 20 -4 7 -9 8 -15 2 -15 -6 0 -17 -3 -26 -6 -10 -4 -16 -1 -16 9 0 9 -8
18 -17 20 -16 4 -16 5 -1 6 9 0 20 -4 24 -10z m898 -1110 c-41 -74 -138 -160
-239 -210 -47 -23 -87 -40 -90 -37 -5 5 64 56 162 119 34 22 91 71 125 109 35
38 64 69 66 70 2 0 -9 -23 -24 -51z"/>
<path d="M1547 2223 c-3 -4 14 -8 36 -9 77 -1 134 -16 149 -38 5 -8 8 -7 8 1
0 7 8 10 18 7 9 -3 -6 6 -33 19 -50 24 -168 37 -178 20z"/>
<path d="M1560 2198 c0 -6 -3 -8 -7 -5 -8 9 -53 -32 -53 -47 1 -6 9 -1 20 12
13 16 26 22 39 17 11 -3 22 -1 26 4 3 7 0 8 -10 5 -11 -5 -14 -2 -9 10 3 9 3
16 0 16 -3 0 -6 -5 -6 -12z"/>
<path d="M1640 2183 c22 -2 38 -8 35 -14 -4 -5 -1 -9 5 -9 7 0 10 6 8 13 -3 7
-23 12 -46 13 l-42 1 40 -4z"/>
<path d="M1572 2157 c-12 -7 -20 -16 -17 -19 3 -3 -1 -11 -9 -17 -12 -10 -13
-18 -4 -36 6 -13 17 -26 25 -29 8 -3 12 -2 8 3 -9 15 6 40 21 34 8 -3 14 -9
14 -15 0 -5 -4 -6 -10 -3 -5 3 -10 1 -10 -4 0 -16 20 -13 26 4 4 8 10 12 15 9
5 -3 15 -2 22 3 7 5 -5 10 -33 14 -35 5 -48 2 -57 -10 -11 -14 -12 -14 -12 4
0 24 16 47 44 63 11 6 16 11 10 11 -5 0 -20 -5 -33 -12z"/>
<path d="M1770 2160 c12 -8 12 -10 -3 -16 -9 -3 -24 -1 -32 6 -12 10 -12 7 1
-18 10 -20 20 -29 29 -25 8 3 15 0 15 -6 0 -6 8 -8 18 -4 15 6 15 4 -2 -15
-11 -12 -15 -22 -10 -22 5 0 2 -5 -6 -10 -11 -7 -12 -10 -2 -10 18 0 43 26 34
36 -4 5 1 2 11 -5 14 -11 15 -16 5 -22 -12 -8 -4 -13 15 -10 12 2 8 -17 -5
-22 -9 -4 -7 -6 3 -6 19 -1 25 -61 6 -61 -8 0 -8 -3 1 -9 11 -6 8 -13 -12 -29
-15 -11 -23 -22 -19 -25 4 -2 20 9 35 24 15 16 22 29 15 29 -8 0 -7 3 2 9 21
13 7 75 -23 112 -14 17 -26 34 -26 39 0 5 -10 10 -22 12 -12 2 -24 10 -26 18
-5 13 -3 13 11 1 19 -15 22 -8 7 20 -6 10 -16 19 -23 19 -8 0 -7 -4 3 -10z"/>
<path d="M1170 2145 c0 -9 4 -14 9 -11 4 3 16 -1 26 -8 27 -19 3 -27 -30 -10
-15 8 -30 13 -32 11 -6 -7 20 -23 54 -35 26 -9 32 -8 38 6 3 9 1 18 -4 20 -6
2 -8 9 -4 15 3 7 2 9 -2 4 -5 -4 -19 0 -32 8 -21 14 -23 14 -23 0z"/>
<path d="M1240 2149 c0 -4 19 -14 43 -21 23 -6 45 -16 48 -21 4 -5 9 -5 13 1
7 12 -24 32 -49 32 -9 0 -14 3 -12 8 3 4 -6 8 -19 8 -13 1 -24 -2 -24 -7z"/>
<path d="M1452 2117 c-2 -51 18 -91 57 -117 45 -31 56 -36 47 -21 -4 6 -3 11
3 11 5 0 11 -5 13 -11 2 -6 13 -9 23 -7 15 4 4 12 -42 34 -66 31 -97 71 -87
111 3 11 2 23 -4 27 -5 3 -9 -9 -10 -27z"/>
<path d="M1602 2133 c-12 -2 -20 -9 -17 -14 4 -5 16 -7 29 -3 20 5 53 -4 121
-31 20 -8 20 -8 1 13 -10 12 -23 19 -27 16 -5 -3 -9 3 -9 13 0 15 -2 16 -10 3
-8 -12 -13 -13 -30 -2 -11 6 -23 11 -27 11 -5 -1 -18 -4 -31 -6z"/>
<path d="M1485 2119 c-4 -5 -1 -9 4 -9 6 0 11 -11 11 -23 0 -13 8 -31 18 -40
28 -26 36 -20 13 9 -15 19 -18 31 -12 48 7 18 5 22 -10 23 -10 1 -21 -2 -24
-8z"/>
<path d="M1837 2098 c8 -15 18 -28 21 -29 4 0 14 -2 23 -4 29 -5 40 10 18 24
-12 7 -18 8 -14 2 3 -6 -1 -11 -10 -11 -9 0 -13 5 -10 10 3 6 1 10 -4 10 -6 0
-11 6 -11 13 0 8 -6 14 -13 14 -11 0 -11 -5 0 -29z"/>
<path d="M1247 2103 c-14 -14 -6 -19 31 -19 20 0 45 -4 55 -8 11 -5 17 -4 17
3 0 6 -9 11 -20 11 -11 0 -20 4 -20 8 0 10 -54 14 -63 5z"/>
<path d="M1381 2093 c-1 -23 18 -72 28 -74 3 0 15 -2 26 -4 17 -3 18 -2 4 8
-9 7 -14 19 -12 27 4 13 3 13 -6 0 -12 -17 -15 -15 -28 30 -8 25 -11 29 -12
13z"/>
<path d="M1670 2072 c0 -7 -8 -12 -17 -10 -10 2 -17 -2 -16 -8 1 -7 -3 -11
-10 -11 -40 1 -67 -4 -67 -13 0 -12 67 -3 85 10 6 4 18 9 27 11 13 3 15 8 8
19 -7 11 -10 11 -10 2z"/>
<path d="M1885 2031 c4 -9 9 -30 12 -46 3 -21 11 -31 23 -31 10 0 16 6 13 13
-3 7 -10 10 -15 7 -6 -4 -9 -1 -7 5 3 7 8 12 12 12 4 -1 13 -1 21 -1 8 0 16
-8 18 -17 3 -17 4 -17 10 -1 6 14 -1 20 -33 29 -42 13 -49 36 -8 31 13 -2 21
-1 18 2 -3 3 -20 8 -38 10 -26 3 -31 1 -26 -13z"/>
<path d="M1696 2026 c5 -13 -30 -44 -66 -60 -8 -3 -4 -4 10 0 14 3 31 6 38 6
6 1 12 7 12 15 0 7 7 16 15 19 19 8 19 20 1 27 -10 4 -13 1 -10 -7z"/>
<path d="M1735 2029 c-4 -6 0 -16 8 -22 8 -7 23 -29 34 -49 14 -28 22 -35 33
-28 12 8 12 10 -3 16 -26 10 -20 23 8 18 14 -2 25 0 25 5 0 5 -8 8 -17 6 -25
-3 -53 13 -53 30 0 8 -3 14 -7 14 -20 -3 -26 2 -13 11 9 6 10 10 3 10 -6 0
-15 -5 -18 -11z"/>
<path d="M1704 1975 c-5 -21 -2 -31 12 -42 13 -9 20 -10 22 -3 3 7 12 4 24 -7
20 -18 21 -18 7 4 -7 13 -22 21 -33 20 -13 -1 -21 5 -24 18 -2 16 -1 17 7 5 5
-8 12 -12 15 -10 2 3 -2 13 -9 24 -13 17 -14 17 -21 -9z"/>
<path d="M1993 1958 c-6 -7 -7 -21 -4 -31 6 -17 8 -17 20 -3 8 10 9 21 4 31
-8 13 -11 14 -20 3z"/>
<path d="M1896 1901 c-3 -22 -17 -53 -31 -69 -25 -30 -25 -45 1 -35 8 3 19 23
24 44 6 21 15 39 19 39 5 0 7 9 4 21 -4 12 0 25 8 30 11 7 11 9 -2 9 -11 0
-18 -12 -23 -39z"/>
<path d="M911 1890 c-19 -11 -5 -42 16 -38 10 2 24 -5 31 -17 10 -15 12 -15 8
-2 -4 11 0 17 10 17 10 0 14 -6 11 -14 -4 -10 -1 -13 9 -9 11 4 12 9 3 19 -6
8 -18 14 -25 14 -8 0 -14 4 -14 10 0 15 -35 29 -49 20z"/>
<path d="M1990 1887 c0 -13 -48 -64 -85 -92 -18 -13 -17 -14 15 -3 43 14 80
54 80 84 0 13 -2 24 -5 24 -3 0 -5 -6 -5 -13z"/>
<path d="M2155 1862 c-4 -4 -11 -7 -16 -7 -5 0 -8 -4 -6 -10 2 -11 37 -9 50 4
5 5 2 11 -6 14 -8 3 -18 3 -22 -1z"/>
<path d="M2190 1715 c-7 -8 -24 -15 -38 -15 -32 0 -20 -13 13 -15 14 0 25 5
25 11 0 7 6 14 13 17 6 2 9 7 6 11 -3 4 -12 0 -19 -9z"/>
<path d="M2058 1625 c-16 -15 -25 -31 -22 -40 4 -8 1 -15 -6 -15 -10 0 -10 -3
0 -15 7 -8 18 -15 24 -15 8 0 8 2 0 8 -10 6 -4 47 6 41 12 -7 50 11 50 23 0
11 -2 10 -9 -1 -5 -7 -14 -10 -20 -7 -18 11 -13 26 10 26 11 0 17 5 14 10 -9
15 -18 12 -47 -15z"/>
<path d="M1480 1825 c-7 -9 -19 -14 -27 -11 -8 3 -11 1 -8 -4 3 -6 35 -10 71
-10 55 0 64 3 63 18 0 10 -3 12 -6 5 -3 -8 -23 -13 -50 -13 -39 0 -44 2 -33
15 7 8 10 15 7 15 -2 0 -10 -7 -17 -15z"/>
<path d="M1335 1810 c-4 -6 -11 -8 -16 -5 -5 4 -9 1 -9 -4 0 -14 17 -14 25 0
4 6 22 8 41 6 19 -3 34 -1 34 4 0 12 -67 11 -75 -1z"/>
<path d="M1593 1806 c2 -5 18 -16 36 -23 18 -8 30 -9 27 -4 -3 5 0 12 6 14 7
3 0 4 -17 4 -17 -1 -29 3 -28 9 1 6 -5 11 -13 11 -8 0 -13 -5 -11 -11z"/>
<path d="M1260 1800 c0 -5 -9 -10 -21 -10 -11 0 -17 -4 -14 -10 7 -11 -4 -13
-46 -10 -16 1 -29 -5 -32 -14 -5 -12 0 -15 21 -12 15 1 39 9 52 16 14 8 36 16
50 18 32 4 33 6 10 20 -12 7 -20 8 -20 2z"/>
<path d="M956 1593 c-3 -8 -10 -11 -16 -8 -5 3 -10 -1 -10 -9 0 -8 -8 -20 -17
-25 -10 -6 -13 -10 -8 -10 6 0 27 15 47 33 21 18 31 33 23 33 -8 0 -17 -7 -19
-14z"/>
<path d="M1177 1599 c-9 -6 -17 -14 -17 -19 0 -16 30 -11 37 5 8 21 1 25 -20
14z"/>
<path d="M1269 1400 c-17 -16 -29 -35 -26 -42 4 -10 6 -10 6 0 1 6 6 12 11 12
7 0 7 -6 0 -20 -9 -17 -8 -20 12 -20 14 0 19 3 11 8 -17 11 -9 44 13 53 10 4
13 8 5 8 -11 1 -11 4 -1 16 21 26 1 16 -31 -15z"/>
<path d="M830 852 c0 -4 10 -19 23 -34 12 -14 30 -36 40 -47 9 -12 17 -25 17
-30 0 -13 96 -111 109 -111 6 0 11 -4 11 -8 0 -4 12 -13 28 -20 15 -7 38 -18
52 -26 14 -8 39 -19 55 -26 17 -7 45 -19 63 -28 37 -17 164 -24 195 -10 11 6
17 5 17 -4 0 -9 2 -10 8 -2 4 7 29 12 57 11 83 -1 125 3 125 11 0 10 -159 8
-278 -3 -62 -5 -80 -3 -115 14 -36 17 -88 34 -107 36 -3 0 -28 18 -55 40 -27
22 -54 43 -60 47 -40 28 -95 83 -95 95 0 8 -20 34 -45 59 -25 24 -45 40 -45
36z"/>
<path d="M2253 776 c-13 -7 -20 -15 -17 -19 8 -8 64 13 64 24 0 12 -20 10 -47
-5z"/>
<path d="M1995 640 l-30 -8 30 0 c17 0 41 4 55 8 l25 8 -25 0 c-14 0 -38 -4
-55 -8z"/>
<path d="M1891 617 c-6 -16 -11 -32 -11 -37 0 -5 -8 -14 -17 -19 -10 -6 -13
-10 -8 -10 15 -1 51 31 58 50 3 9 1 22 -3 30 -7 10 -11 7 -19 -14z"/>
<path d="M1651 526 c9 -9 126 -14 139 -6 7 4 -23 8 -66 9 -43 1 -76 -1 -73 -3z"/>
</g>
</svg>
