<?xml version="1.0" encoding="utf-8" ?>
<svg baseProfile="full" height="75" version="1.1" width="75" xmlns="http://www.w3.org/2000/svg" xmlns:ev="http://www.w3.org/2001/xml-events" xmlns:xlink="http://www.w3.org/1999/xlink"><defs /><rect fill="white" height="1" width="1" x="39" y="13" /><rect fill="white" height="1" width="1" x="40" y="13" /><rect fill="white" height="1" width="1" x="38" y="14" /><rect fill="white" height="1" width="1" x="39" y="14" /><rect fill="white" height="1" width="1" x="40" y="14" /><rect fill="white" height="1" width="1" x="36" y="15" /><rect fill="white" height="1" width="1" x="37" y="15" /><rect fill="white" height="1" width="1" x="38" y="15" /><rect fill="white" height="1" width="1" x="39" y="15" /><rect fill="white" height="1" width="1" x="40" y="15" /><rect fill="white" height="1" width="1" x="35" y="16" /><rect fill="white" height="1" width="1" x="36" y="16" /><rect fill="white" height="1" width="1" x="37" y="16" /><rect fill="white" height="1" width="1" x="38" y="16" /><rect fill="white" height="1" width="1" x="39" y="16" /><rect fill="white" height="1" width="1" x="40" y="16" /><rect fill="white" height="1" width="1" x="32" y="17" /><rect fill="white" height="1" width="1" x="34" y="17" /><rect fill="white" height="1" width="1" x="35" y="17" /><rect fill="white" height="1" width="1" x="36" y="17" /><rect fill="white" height="1" width="1" x="37" y="17" /><rect fill="white" height="1" width="1" x="38" y="17" /><rect fill="white" height="1" width="1" x="39" y="17" /><rect fill="white" height="1" width="1" x="40" y="17" /><rect fill="white" height="1" width="1" x="41" y="17" /><rect fill="white" height="1" width="1" x="42" y="17" /><rect fill="white" height="1" width="1" x="31" y="18" /><rect fill="white" height="1" width="1" x="32" y="18" /><rect fill="white" height="1" width="1" x="34" y="18" /><rect fill="white" height="1" width="1" x="35" y="18" /><rect fill="white" height="1" width="1" x="36" y="18" /><rect fill="white" height="1" width="1" x="37" y="18" /><rect fill="white" height="1" width="1" x="38" y="18" /><rect fill="white" height="1" width="1" x="39" y="18" /><rect fill="white" height="1" width="1" x="40" y="18" /><rect fill="white" height="1" width="1" x="41" y="18" /><rect fill="white" height="1" width="1" x="42" y="18" /><rect fill="white" height="1" width="1" x="43" y="18" /><rect fill="white" height="1" width="1" x="44" y="18" /><rect fill="white" height="1" width="1" x="29" y="19" /><rect fill="white" height="1" width="1" x="30" y="19" /><rect fill="white" height="1" width="1" x="31" y="19" /><rect fill="white" height="1" width="1" x="33" y="19" /><rect fill="white" height="1" width="1" x="34" y="19" /><rect fill="white" height="1" width="1" x="35" y="19" /><rect fill="white" height="1" width="1" x="36" y="19" /><rect fill="white" height="1" width="1" x="37" y="19" /><rect fill="white" height="1" width="1" x="38" y="19" /><rect fill="white" height="1" width="1" x="39" y="19" /><rect fill="white" height="1" width="1" x="40" y="19" /><rect fill="white" height="1" width="1" x="41" y="19" /><rect fill="white" height="1" width="1" x="42" y="19" /><rect fill="white" height="1" width="1" x="43" y="19" /><rect fill="white" height="1" width="1" x="44" y="19" /><rect fill="white" height="1" width="1" x="29" y="20" /><rect fill="white" height="1" width="1" x="30" y="20" /><rect fill="white" height="1" width="1" x="32" y="20" /><rect fill="white" height="1" width="1" x="33" y="20" /><rect fill="white" height="1" width="1" x="34" y="20" /><rect fill="white" height="1" width="1" x="35" y="20" /><rect fill="white" height="1" width="1" x="36" y="20" /><rect fill="white" height="1" width="1" x="37" y="20" /><rect fill="white" height="1" width="1" x="38" y="20" /><rect fill="white" height="1" width="1" x="39" y="20" /><rect fill="white" height="1" width="1" x="40" y="20" /><rect fill="white" height="1" width="1" x="41" y="20" /><rect fill="white" height="1" width="1" x="42" y="20" /><rect fill="white" height="1" width="1" x="43" y="20" /><rect fill="white" height="1" width="1" x="44" y="20" /><rect fill="white" height="1" width="1" x="45" y="20" /><rect fill="white" height="1" width="1" x="28" y="21" /><rect fill="white" height="1" width="1" x="29" y="21" /><rect fill="white" height="1" width="1" x="30" y="21" /><rect fill="white" height="1" width="1" x="32" y="21" /><rect fill="white" height="1" width="1" x="33" y="21" /><rect fill="white" height="1" width="1" x="34" y="21" /><rect fill="white" height="1" width="1" x="35" y="21" /><rect fill="white" height="1" width="1" x="36" y="21" /><rect fill="white" height="1" width="1" x="37" y="21" /><rect fill="white" height="1" width="1" x="38" y="21" /><rect fill="white" height="1" width="1" x="39" y="21" /><rect fill="white" height="1" width="1" x="40" y="21" /><rect fill="white" height="1" width="1" x="41" y="21" /><rect fill="white" height="1" width="1" x="42" y="21" /><rect fill="white" height="1" width="1" x="43" y="21" /><rect fill="white" height="1" width="1" x="44" y="21" /><rect fill="white" height="1" width="1" x="45" y="21" /><rect fill="white" height="1" width="1" x="46" y="21" /><rect fill="white" height="1" width="1" x="28" y="22" /><rect fill="white" height="1" width="1" x="29" y="22" /><rect fill="white" height="1" width="1" x="31" y="22" /><rect fill="white" height="1" width="1" x="32" y="22" /><rect fill="white" height="1" width="1" x="33" y="22" /><rect fill="white" height="1" width="1" x="34" y="22" /><rect fill="white" height="1" width="1" x="35" y="22" /><rect fill="white" height="1" width="1" x="36" y="22" /><rect fill="white" height="1" width="1" x="37" y="22" /><rect fill="white" height="1" width="1" x="38" y="22" /><rect fill="white" height="1" width="1" x="39" y="22" /><rect fill="white" height="1" width="1" x="40" y="22" /><rect fill="white" height="1" width="1" x="41" y="22" /><rect fill="white" height="1" width="1" x="42" y="22" /><rect fill="white" height="1" width="1" x="43" y="22" /><rect fill="white" height="1" width="1" x="44" y="22" /><rect fill="white" height="1" width="1" x="45" y="22" /><rect fill="white" height="1" width="1" x="46" y="22" /><rect fill="white" height="1" width="1" x="47" y="22" /><rect fill="white" height="1" width="1" x="27" y="23" /><rect fill="white" height="1" width="1" x="28" y="23" /><rect fill="white" height="1" width="1" x="29" y="23" /><rect fill="white" height="1" width="1" x="31" y="23" /><rect fill="white" height="1" width="1" x="32" y="23" /><rect fill="white" height="1" width="1" x="33" y="23" /><rect fill="white" height="1" width="1" x="34" y="23" /><rect fill="white" height="1" width="1" x="35" y="23" /><rect fill="white" height="1" width="1" x="36" y="23" /><rect fill="white" height="1" width="1" x="37" y="23" /><rect fill="white" height="1" width="1" x="38" y="23" /><rect fill="white" height="1" width="1" x="39" y="23" /><rect fill="white" height="1" width="1" x="40" y="23" /><rect fill="white" height="1" width="1" x="41" y="23" /><rect fill="white" height="1" width="1" x="42" y="23" /><rect fill="white" height="1" width="1" x="43" y="23" /><rect fill="white" height="1" width="1" x="44" y="23" /><rect fill="white" height="1" width="1" x="45" y="23" /><rect fill="white" height="1" width="1" x="46" y="23" /><rect fill="white" height="1" width="1" x="47" y="23" /><rect fill="white" height="1" width="1" x="48" y="23" /><rect fill="white" height="1" width="1" x="27" y="24" /><rect fill="white" height="1" width="1" x="28" y="24" /><rect fill="white" height="1" width="1" x="29" y="24" /><rect fill="white" height="1" width="1" x="30" y="24" /><rect fill="white" height="1" width="1" x="31" y="24" /><rect fill="white" height="1" width="1" x="32" y="24" /><rect fill="white" height="1" width="1" x="33" y="24" /><rect fill="white" height="1" width="1" x="34" y="24" /><rect fill="white" height="1" width="1" x="35" y="24" /><rect fill="white" height="1" width="1" x="36" y="24" /><rect fill="white" height="1" width="1" x="37" y="24" /><rect fill="white" height="1" width="1" x="38" y="24" /><rect fill="white" height="1" width="1" x="39" y="24" /><rect fill="white" height="1" width="1" x="40" y="24" /><rect fill="white" height="1" width="1" x="41" y="24" /><rect fill="white" height="1" width="1" x="42" y="24" /><rect fill="white" height="1" width="1" x="43" y="24" /><rect fill="white" height="1" width="1" x="44" y="24" /><rect fill="white" height="1" width="1" x="45" y="24" /><rect fill="white" height="1" width="1" x="46" y="24" /><rect fill="white" height="1" width="1" x="47" y="24" /><rect fill="white" height="1" width="1" x="48" y="24" /><rect fill="white" height="1" width="1" x="27" y="25" /><rect fill="white" height="1" width="1" x="28" y="25" /><rect fill="white" height="1" width="1" x="30" y="25" /><rect fill="white" height="1" width="1" x="31" y="25" /><rect fill="white" height="1" width="1" x="32" y="25" /><rect fill="white" height="1" width="1" x="33" y="25" /><rect fill="white" height="1" width="1" x="34" y="25" /><rect fill="white" height="1" width="1" x="35" y="25" /><rect fill="white" height="1" width="1" x="36" y="25" /><rect fill="white" height="1" width="1" x="38" y="25" /><rect fill="white" height="1" width="1" x="39" y="25" /><rect fill="white" height="1" width="1" x="40" y="25" /><rect fill="white" height="1" width="1" x="41" y="25" /><rect fill="white" height="1" width="1" x="42" y="25" /><rect fill="white" height="1" width="1" x="43" y="25" /><rect fill="white" height="1" width="1" x="44" y="25" /><rect fill="white" height="1" width="1" x="45" y="25" /><rect fill="white" height="1" width="1" x="46" y="25" /><rect fill="white" height="1" width="1" x="47" y="25" /><rect fill="white" height="1" width="1" x="48" y="25" /><rect fill="white" height="1" width="1" x="49" y="25" /><rect fill="white" height="1" width="1" x="27" y="26" /><rect fill="white" height="1" width="1" x="28" y="26" /><rect fill="white" height="1" width="1" x="30" y="26" /><rect fill="white" height="1" width="1" x="31" y="26" /><rect fill="white" height="1" width="1" x="32" y="26" /><rect fill="white" height="1" width="1" x="33" y="26" /><rect fill="white" height="1" width="1" x="34" y="26" /><rect fill="white" height="1" width="1" x="35" y="26" /><rect fill="white" height="1" width="1" x="36" y="26" /><rect fill="white" height="1" width="1" x="37" y="26" /><rect fill="white" height="1" width="1" x="39" y="26" /><rect fill="white" height="1" width="1" x="40" y="26" /><rect fill="white" height="1" width="1" x="41" y="26" /><rect fill="white" height="1" width="1" x="42" y="26" /><rect fill="white" height="1" width="1" x="43" y="26" /><rect fill="white" height="1" width="1" x="44" y="26" /><rect fill="white" height="1" width="1" x="45" y="26" /><rect fill="white" height="1" width="1" x="46" y="26" /><rect fill="white" height="1" width="1" x="47" y="26" /><rect fill="white" height="1" width="1" x="48" y="26" /><rect fill="white" height="1" width="1" x="49" y="26" /><rect fill="white" height="1" width="1" x="50" y="26" /><rect fill="white" height="1" width="1" x="26" y="27" /><rect fill="white" height="1" width="1" x="27" y="27" /><rect fill="white" height="1" width="1" x="28" y="27" /><rect fill="white" height="1" width="1" x="30" y="27" /><rect fill="white" height="1" width="1" x="31" y="27" /><rect fill="white" height="1" width="1" x="32" y="27" /><rect fill="white" height="1" width="1" x="33" y="27" /><rect fill="white" height="1" width="1" x="34" y="27" /><rect fill="white" height="1" width="1" x="35" y="27" /><rect fill="white" height="1" width="1" x="36" y="27" /><rect fill="white" height="1" width="1" x="37" y="27" /><rect fill="white" height="1" width="1" x="40" y="27" /><rect fill="white" height="1" width="1" x="41" y="27" /><rect fill="white" height="1" width="1" x="42" y="27" /><rect fill="white" height="1" width="1" x="43" y="27" /><rect fill="white" height="1" width="1" x="44" y="27" /><rect fill="white" height="1" width="1" x="45" y="27" /><rect fill="white" height="1" width="1" x="46" y="27" /><rect fill="white" height="1" width="1" x="47" y="27" /><rect fill="white" height="1" width="1" x="48" y="27" /><rect fill="white" height="1" width="1" x="49" y="27" /><rect fill="white" height="1" width="1" x="50" y="27" /><rect fill="white" height="1" width="1" x="26" y="28" /><rect fill="white" height="1" width="1" x="27" y="28" /><rect fill="white" height="1" width="1" x="28" y="28" /><rect fill="white" height="1" width="1" x="29" y="28" /><rect fill="white" height="1" width="1" x="30" y="28" /><rect fill="white" height="1" width="1" x="31" y="28" /><rect fill="white" height="1" width="1" x="32" y="28" /><rect fill="white" height="1" width="1" x="33" y="28" /><rect fill="white" height="1" width="1" x="34" y="28" /><rect fill="white" height="1" width="1" x="35" y="28" /><rect fill="white" height="1" width="1" x="36" y="28" /><rect fill="white" height="1" width="1" x="37" y="28" /><rect fill="white" height="1" width="1" x="38" y="28" /><rect fill="white" height="1" width="1" x="42" y="28" /><rect fill="white" height="1" width="1" x="43" y="28" /><rect fill="white" height="1" width="1" x="44" y="28" /><rect fill="white" height="1" width="1" x="45" y="28" /><rect fill="white" height="1" width="1" x="46" y="28" /><rect fill="white" height="1" width="1" x="47" y="28" /><rect fill="white" height="1" width="1" x="48" y="28" /><rect fill="white" height="1" width="1" x="49" y="28" /><rect fill="white" height="1" width="1" x="50" y="28" /><rect fill="white" height="1" width="1" x="26" y="29" /><rect fill="white" height="1" width="1" x="27" y="29" /><rect fill="white" height="1" width="1" x="29" y="29" /><rect fill="white" height="1" width="1" x="30" y="29" /><rect fill="white" height="1" width="1" x="31" y="29" /><rect fill="white" height="1" width="1" x="32" y="29" /><rect fill="white" height="1" width="1" x="33" y="29" /><rect fill="white" height="1" width="1" x="34" y="29" /><rect fill="white" height="1" width="1" x="35" y="29" /><rect fill="white" height="1" width="1" x="36" y="29" /><rect fill="white" height="1" width="1" x="37" y="29" /><rect fill="white" height="1" width="1" x="38" y="29" /><rect fill="white" height="1" width="1" x="39" y="29" /><rect fill="white" height="1" width="1" x="45" y="29" /><rect fill="white" height="1" width="1" x="46" y="29" /><rect fill="white" height="1" width="1" x="47" y="29" /><rect fill="white" height="1" width="1" x="48" y="29" /><rect fill="white" height="1" width="1" x="49" y="29" /><rect fill="white" height="1" width="1" x="26" y="30" /><rect fill="white" height="1" width="1" x="27" y="30" /><rect fill="white" height="1" width="1" x="29" y="30" /><rect fill="white" height="1" width="1" x="30" y="30" /><rect fill="white" height="1" width="1" x="31" y="30" /><rect fill="white" height="1" width="1" x="32" y="30" /><rect fill="white" height="1" width="1" x="33" y="30" /><rect fill="white" height="1" width="1" x="34" y="30" /><rect fill="white" height="1" width="1" x="35" y="30" /><rect fill="white" height="1" width="1" x="36" y="30" /><rect fill="white" height="1" width="1" x="37" y="30" /><rect fill="white" height="1" width="1" x="38" y="30" /><rect fill="white" height="1" width="1" x="46" y="30" /><rect fill="white" height="1" width="1" x="47" y="30" /><rect fill="white" height="1" width="1" x="26" y="31" /><rect fill="white" height="1" width="1" x="27" y="31" /><rect fill="white" height="1" width="1" x="29" y="31" /><rect fill="white" height="1" width="1" x="30" y="31" /><rect fill="white" height="1" width="1" x="31" y="31" /><rect fill="white" height="1" width="1" x="32" y="31" /><rect fill="white" height="1" width="1" x="33" y="31" /><rect fill="white" height="1" width="1" x="34" y="31" /><rect fill="white" height="1" width="1" x="35" y="31" /><rect fill="white" height="1" width="1" x="36" y="31" /><rect fill="white" height="1" width="1" x="37" y="31" /><rect fill="white" height="1" width="1" x="38" y="31" /><rect fill="white" height="1" width="1" x="39" y="31" /><rect fill="white" height="1" width="1" x="25" y="32" /><rect fill="white" height="1" width="1" x="26" y="32" /><rect fill="white" height="1" width="1" x="27" y="32" /><rect fill="white" height="1" width="1" x="29" y="32" /><rect fill="white" height="1" width="1" x="30" y="32" /><rect fill="white" height="1" width="1" x="31" y="32" /><rect fill="white" height="1" width="1" x="32" y="32" /><rect fill="white" height="1" width="1" x="33" y="32" /><rect fill="white" height="1" width="1" x="34" y="32" /><rect fill="white" height="1" width="1" x="35" y="32" /><rect fill="white" height="1" width="1" x="36" y="32" /><rect fill="white" height="1" width="1" x="37" y="32" /><rect fill="white" height="1" width="1" x="38" y="32" /><rect fill="white" height="1" width="1" x="39" y="32" /><rect fill="white" height="1" width="1" x="25" y="33" /><rect fill="white" height="1" width="1" x="26" y="33" /><rect fill="white" height="1" width="1" x="27" y="33" /><rect fill="white" height="1" width="1" x="29" y="33" /><rect fill="white" height="1" width="1" x="30" y="33" /><rect fill="white" height="1" width="1" x="31" y="33" /><rect fill="white" height="1" width="1" x="32" y="33" /><rect fill="white" height="1" width="1" x="33" y="33" /><rect fill="white" height="1" width="1" x="34" y="33" /><rect fill="white" height="1" width="1" x="35" y="33" /><rect fill="white" height="1" width="1" x="36" y="33" /><rect fill="white" height="1" width="1" x="37" y="33" /><rect fill="white" height="1" width="1" x="38" y="33" /><rect fill="white" height="1" width="1" x="39" y="33" /><rect fill="white" height="1" width="1" x="40" y="33" /><rect fill="white" height="1" width="1" x="25" y="34" /><rect fill="white" height="1" width="1" x="26" y="34" /><rect fill="white" height="1" width="1" x="27" y="34" /><rect fill="white" height="1" width="1" x="28" y="34" /><rect fill="white" height="1" width="1" x="29" y="34" /><rect fill="white" height="1" width="1" x="30" y="34" /><rect fill="white" height="1" width="1" x="31" y="34" /><rect fill="white" height="1" width="1" x="32" y="34" /><rect fill="white" height="1" width="1" x="33" y="34" /><rect fill="white" height="1" width="1" x="34" y="34" /><rect fill="white" height="1" width="1" x="35" y="34" /><rect fill="white" height="1" width="1" x="36" y="34" /><rect fill="white" height="1" width="1" x="37" y="34" /><rect fill="white" height="1" width="1" x="38" y="34" /><rect fill="white" height="1" width="1" x="39" y="34" /><rect fill="white" height="1" width="1" x="40" y="34" /><rect fill="white" height="1" width="1" x="25" y="35" /><rect fill="white" height="1" width="1" x="26" y="35" /><rect fill="white" height="1" width="1" x="27" y="35" /><rect fill="white" height="1" width="1" x="28" y="35" /><rect fill="white" height="1" width="1" x="29" y="35" /><rect fill="white" height="1" width="1" x="30" y="35" /><rect fill="white" height="1" width="1" x="31" y="35" /><rect fill="white" height="1" width="1" x="32" y="35" /><rect fill="white" height="1" width="1" x="33" y="35" /><rect fill="white" height="1" width="1" x="34" y="35" /><rect fill="white" height="1" width="1" x="35" y="35" /><rect fill="white" height="1" width="1" x="36" y="35" /><rect fill="white" height="1" width="1" x="37" y="35" /><rect fill="white" height="1" width="1" x="38" y="35" /><rect fill="white" height="1" width="1" x="39" y="35" /><rect fill="white" height="1" width="1" x="40" y="35" /><rect fill="white" height="1" width="1" x="41" y="35" /><rect fill="white" height="1" width="1" x="25" y="36" /><rect fill="white" height="1" width="1" x="26" y="36" /><rect fill="white" height="1" width="1" x="27" y="36" /><rect fill="white" height="1" width="1" x="28" y="36" /><rect fill="white" height="1" width="1" x="29" y="36" /><rect fill="white" height="1" width="1" x="30" y="36" /><rect fill="white" height="1" width="1" x="31" y="36" /><rect fill="white" height="1" width="1" x="32" y="36" /><rect fill="white" height="1" width="1" x="33" y="36" /><rect fill="white" height="1" width="1" x="34" y="36" /><rect fill="white" height="1" width="1" x="35" y="36" /><rect fill="white" height="1" width="1" x="36" y="36" /><rect fill="white" height="1" width="1" x="37" y="36" /><rect fill="white" height="1" width="1" x="38" y="36" /><rect fill="white" height="1" width="1" x="39" y="36" /><rect fill="white" height="1" width="1" x="40" y="36" /><rect fill="white" height="1" width="1" x="41" y="36" /><rect fill="white" height="1" width="1" x="42" y="36" /><rect fill="white" height="1" width="1" x="25" y="37" /><rect fill="white" height="1" width="1" x="26" y="37" /><rect fill="white" height="1" width="1" x="28" y="37" /><rect fill="white" height="1" width="1" x="29" y="37" /><rect fill="white" height="1" width="1" x="30" y="37" /><rect fill="white" height="1" width="1" x="31" y="37" /><rect fill="white" height="1" width="1" x="32" y="37" /><rect fill="white" height="1" width="1" x="33" y="37" /><rect fill="white" height="1" width="1" x="34" y="37" /><rect fill="white" height="1" width="1" x="35" y="37" /><rect fill="white" height="1" width="1" x="36" y="37" /><rect fill="white" height="1" width="1" x="37" y="37" /><rect fill="white" height="1" width="1" x="38" y="37" /><rect fill="white" height="1" width="1" x="39" y="37" /><rect fill="white" height="1" width="1" x="40" y="37" /><rect fill="white" height="1" width="1" x="41" y="37" /><rect fill="white" height="1" width="1" x="42" y="37" /><rect fill="white" height="1" width="1" x="25" y="38" /><rect fill="white" height="1" width="1" x="26" y="38" /><rect fill="white" height="1" width="1" x="28" y="38" /><rect fill="white" height="1" width="1" x="29" y="38" /><rect fill="white" height="1" width="1" x="30" y="38" /><rect fill="white" height="1" width="1" x="31" y="38" /><rect fill="white" height="1" width="1" x="32" y="38" /><rect fill="white" height="1" width="1" x="33" y="38" /><rect fill="white" height="1" width="1" x="34" y="38" /><rect fill="white" height="1" width="1" x="35" y="38" /><rect fill="white" height="1" width="1" x="36" y="38" /><rect fill="white" height="1" width="1" x="37" y="38" /><rect fill="white" height="1" width="1" x="38" y="38" /><rect fill="white" height="1" width="1" x="39" y="38" /><rect fill="white" height="1" width="1" x="40" y="38" /><rect fill="white" height="1" width="1" x="41" y="38" /><rect fill="white" height="1" width="1" x="42" y="38" /><rect fill="white" height="1" width="1" x="43" y="38" /><rect fill="white" height="1" width="1" x="24" y="39" /><rect fill="white" height="1" width="1" x="25" y="39" /><rect fill="white" height="1" width="1" x="26" y="39" /><rect fill="white" height="1" width="1" x="28" y="39" /><rect fill="white" height="1" width="1" x="29" y="39" /><rect fill="white" height="1" width="1" x="30" y="39" /><rect fill="white" height="1" width="1" x="31" y="39" /><rect fill="white" height="1" width="1" x="32" y="39" /><rect fill="white" height="1" width="1" x="33" y="39" /><rect fill="white" height="1" width="1" x="34" y="39" /><rect fill="white" height="1" width="1" x="35" y="39" /><rect fill="white" height="1" width="1" x="36" y="39" /><rect fill="white" height="1" width="1" x="37" y="39" /><rect fill="white" height="1" width="1" x="38" y="39" /><rect fill="white" height="1" width="1" x="39" y="39" /><rect fill="white" height="1" width="1" x="40" y="39" /><rect fill="white" height="1" width="1" x="41" y="39" /><rect fill="white" height="1" width="1" x="42" y="39" /><rect fill="white" height="1" width="1" x="43" y="39" /><rect fill="white" height="1" width="1" x="44" y="39" /><rect fill="white" height="1" width="1" x="24" y="40" /><rect fill="white" height="1" width="1" x="25" y="40" /><rect fill="white" height="1" width="1" x="26" y="40" /><rect fill="white" height="1" width="1" x="28" y="40" /><rect fill="white" height="1" width="1" x="29" y="40" /><rect fill="white" height="1" width="1" x="30" y="40" /><rect fill="white" height="1" width="1" x="31" y="40" /><rect fill="white" height="1" width="1" x="32" y="40" /><rect fill="white" height="1" width="1" x="33" y="40" /><rect fill="white" height="1" width="1" x="34" y="40" /><rect fill="white" height="1" width="1" x="35" y="40" /><rect fill="white" height="1" width="1" x="36" y="40" /><rect fill="white" height="1" width="1" x="37" y="40" /><rect fill="white" height="1" width="1" x="38" y="40" /><rect fill="white" height="1" width="1" x="39" y="40" /><rect fill="white" height="1" width="1" x="40" y="40" /><rect fill="white" height="1" width="1" x="41" y="40" /><rect fill="white" height="1" width="1" x="42" y="40" /><rect fill="white" height="1" width="1" x="43" y="40" /><rect fill="white" height="1" width="1" x="44" y="40" /><rect fill="white" height="1" width="1" x="24" y="41" /><rect fill="white" height="1" width="1" x="25" y="41" /><rect fill="white" height="1" width="1" x="26" y="41" /><rect fill="white" height="1" width="1" x="28" y="41" /><rect fill="white" height="1" width="1" x="29" y="41" /><rect fill="white" height="1" width="1" x="30" y="41" /><rect fill="white" height="1" width="1" x="31" y="41" /><rect fill="white" height="1" width="1" x="32" y="41" /><rect fill="white" height="1" width="1" x="33" y="41" /><rect fill="white" height="1" width="1" x="34" y="41" /><rect fill="white" height="1" width="1" x="35" y="41" /><rect fill="white" height="1" width="1" x="36" y="41" /><rect fill="white" height="1" width="1" x="37" y="41" /><rect fill="white" height="1" width="1" x="38" y="41" /><rect fill="white" height="1" width="1" x="39" y="41" /><rect fill="white" height="1" width="1" x="40" y="41" /><rect fill="white" height="1" width="1" x="41" y="41" /><rect fill="white" height="1" width="1" x="42" y="41" /><rect fill="white" height="1" width="1" x="43" y="41" /><rect fill="white" height="1" width="1" x="44" y="41" /><rect fill="white" height="1" width="1" x="45" y="41" /><rect fill="white" height="1" width="1" x="24" y="42" /><rect fill="white" height="1" width="1" x="25" y="42" /><rect fill="white" height="1" width="1" x="26" y="42" /><rect fill="white" height="1" width="1" x="28" y="42" /><rect fill="white" height="1" width="1" x="29" y="42" /><rect fill="white" height="1" width="1" x="30" y="42" /><rect fill="white" height="1" width="1" x="31" y="42" /><rect fill="white" height="1" width="1" x="32" y="42" /><rect fill="white" height="1" width="1" x="33" y="42" /><rect fill="white" height="1" width="1" x="34" y="42" /><rect fill="white" height="1" width="1" x="35" y="42" /><rect fill="white" height="1" width="1" x="36" y="42" /><rect fill="white" height="1" width="1" x="37" y="42" /><rect fill="white" height="1" width="1" x="38" y="42" /><rect fill="white" height="1" width="1" x="39" y="42" /><rect fill="white" height="1" width="1" x="40" y="42" /><rect fill="white" height="1" width="1" x="41" y="42" /><rect fill="white" height="1" width="1" x="42" y="42" /><rect fill="white" height="1" width="1" x="43" y="42" /><rect fill="white" height="1" width="1" x="44" y="42" /><rect fill="white" height="1" width="1" x="45" y="42" /><rect fill="white" height="1" width="1" x="24" y="43" /><rect fill="white" height="1" width="1" x="25" y="43" /><rect fill="white" height="1" width="1" x="26" y="43" /><rect fill="white" height="1" width="1" x="28" y="43" /><rect fill="white" height="1" width="1" x="29" y="43" /><rect fill="white" height="1" width="1" x="30" y="43" /><rect fill="white" height="1" width="1" x="31" y="43" /><rect fill="white" height="1" width="1" x="32" y="43" /><rect fill="white" height="1" width="1" x="33" y="43" /><rect fill="white" height="1" width="1" x="34" y="43" /><rect fill="white" height="1" width="1" x="35" y="43" /><rect fill="white" height="1" width="1" x="36" y="43" /><rect fill="white" height="1" width="1" x="37" y="43" /><rect fill="white" height="1" width="1" x="38" y="43" /><rect fill="white" height="1" width="1" x="39" y="43" /><rect fill="white" height="1" width="1" x="40" y="43" /><rect fill="white" height="1" width="1" x="41" y="43" /><rect fill="white" height="1" width="1" x="42" y="43" /><rect fill="white" height="1" width="1" x="43" y="43" /><rect fill="white" height="1" width="1" x="44" y="43" /><rect fill="white" height="1" width="1" x="45" y="43" /><rect fill="white" height="1" width="1" x="46" y="43" /><rect fill="white" height="1" width="1" x="28" y="44" /><rect fill="white" height="1" width="1" x="29" y="44" /><rect fill="white" height="1" width="1" x="30" y="44" /><rect fill="white" height="1" width="1" x="31" y="44" /><rect fill="white" height="1" width="1" x="32" y="44" /><rect fill="white" height="1" width="1" x="33" y="44" /><rect fill="white" height="1" width="1" x="34" y="44" /><rect fill="white" height="1" width="1" x="35" y="44" /><rect fill="white" height="1" width="1" x="36" y="44" /><rect fill="white" height="1" width="1" x="37" y="44" /><rect fill="white" height="1" width="1" x="38" y="44" /><rect fill="white" height="1" width="1" x="39" y="44" /><rect fill="white" height="1" width="1" x="40" y="44" /><rect fill="white" height="1" width="1" x="41" y="44" /><rect fill="white" height="1" width="1" x="42" y="44" /><rect fill="white" height="1" width="1" x="43" y="44" /><rect fill="white" height="1" width="1" x="44" y="44" /><rect fill="white" height="1" width="1" x="45" y="44" /><rect fill="white" height="1" width="1" x="46" y="44" /><rect fill="white" height="1" width="1" x="47" y="44" /><rect fill="white" height="1" width="1" x="28" y="45" /><rect fill="white" height="1" width="1" x="29" y="45" /><rect fill="white" height="1" width="1" x="30" y="45" /><rect fill="white" height="1" width="1" x="31" y="45" /><rect fill="white" height="1" width="1" x="32" y="45" /><rect fill="white" height="1" width="1" x="33" y="45" /><rect fill="white" height="1" width="1" x="34" y="45" /><rect fill="white" height="1" width="1" x="35" y="45" /><rect fill="white" height="1" width="1" x="36" y="45" /><rect fill="white" height="1" width="1" x="37" y="45" /><rect fill="white" height="1" width="1" x="38" y="45" /><rect fill="white" height="1" width="1" x="39" y="45" /><rect fill="white" height="1" width="1" x="40" y="45" /><rect fill="white" height="1" width="1" x="41" y="45" /><rect fill="white" height="1" width="1" x="42" y="45" /><rect fill="white" height="1" width="1" x="43" y="45" /><rect fill="white" height="1" width="1" x="44" y="45" /><rect fill="white" height="1" width="1" x="45" y="45" /><rect fill="white" height="1" width="1" x="46" y="45" /><rect fill="white" height="1" width="1" x="47" y="45" /><rect fill="white" height="1" width="1" x="29" y="46" /><rect fill="white" height="1" width="1" x="30" y="46" /><rect fill="white" height="1" width="1" x="31" y="46" /><rect fill="white" height="1" width="1" x="32" y="46" /><rect fill="white" height="1" width="1" x="33" y="46" /><rect fill="white" height="1" width="1" x="34" y="46" /><rect fill="white" height="1" width="1" x="35" y="46" /><rect fill="white" height="1" width="1" x="36" y="46" /><rect fill="white" height="1" width="1" x="37" y="46" /><rect fill="white" height="1" width="1" x="38" y="46" /><rect fill="white" height="1" width="1" x="39" y="46" /><rect fill="white" height="1" width="1" x="40" y="46" /><rect fill="white" height="1" width="1" x="41" y="46" /><rect fill="white" height="1" width="1" x="42" y="46" /><rect fill="white" height="1" width="1" x="43" y="46" /><rect fill="white" height="1" width="1" x="44" y="46" /><rect fill="white" height="1" width="1" x="45" y="46" /><rect fill="white" height="1" width="1" x="46" y="46" /><rect fill="white" height="1" width="1" x="47" y="46" /><rect fill="white" height="1" width="1" x="29" y="49" /><rect fill="white" height="1" width="1" x="30" y="49" /><rect fill="white" height="1" width="1" x="31" y="49" /><rect fill="white" height="1" width="1" x="32" y="49" /><rect fill="white" height="1" width="1" x="33" y="49" /><rect fill="white" height="1" width="1" x="34" y="49" /><rect fill="white" height="1" width="1" x="35" y="49" /><rect fill="white" height="1" width="1" x="36" y="49" /><rect fill="white" height="1" width="1" x="37" y="49" /><rect fill="white" height="1" width="1" x="38" y="49" /><rect fill="white" height="1" width="1" x="39" y="49" /><rect fill="white" height="1" width="1" x="40" y="49" /><rect fill="white" height="1" width="1" x="41" y="49" /><rect fill="white" height="1" width="1" x="42" y="49" /><rect fill="white" height="1" width="1" x="43" y="49" /><rect fill="white" height="1" width="1" x="44" y="49" /><rect fill="white" height="1" width="1" x="45" y="49" /><rect fill="white" height="1" width="1" x="46" y="49" /><rect fill="white" height="1" width="1" x="47" y="49" /><rect fill="white" height="1" width="1" x="29" y="50" /><rect fill="white" height="1" width="1" x="30" y="50" /><rect fill="white" height="1" width="1" x="31" y="50" /><rect fill="white" height="1" width="1" x="32" y="50" /><rect fill="white" height="1" width="1" x="33" y="50" /><rect fill="white" height="1" width="1" x="34" y="50" /><rect fill="white" height="1" width="1" x="35" y="50" /><rect fill="white" height="1" width="1" x="36" y="50" /><rect fill="white" height="1" width="1" x="37" y="50" /><rect fill="white" height="1" width="1" x="38" y="50" /><rect fill="white" height="1" width="1" x="39" y="50" /><rect fill="white" height="1" width="1" x="40" y="50" /><rect fill="white" height="1" width="1" x="41" y="50" /><rect fill="white" height="1" width="1" x="42" y="50" /><rect fill="white" height="1" width="1" x="43" y="50" /><rect fill="white" height="1" width="1" x="44" y="50" /><rect fill="white" height="1" width="1" x="45" y="50" /><rect fill="white" height="1" width="1" x="46" y="50" /><rect fill="white" height="1" width="1" x="29" y="51" /><rect fill="white" height="1" width="1" x="30" y="51" /><rect fill="white" height="1" width="1" x="31" y="51" /><rect fill="white" height="1" width="1" x="32" y="51" /><rect fill="white" height="1" width="1" x="33" y="51" /><rect fill="white" height="1" width="1" x="34" y="51" /><rect fill="white" height="1" width="1" x="35" y="51" /><rect fill="white" height="1" width="1" x="36" y="51" /><rect fill="white" height="1" width="1" x="37" y="51" /><rect fill="white" height="1" width="1" x="38" y="51" /><rect fill="white" height="1" width="1" x="39" y="51" /><rect fill="white" height="1" width="1" x="40" y="51" /><rect fill="white" height="1" width="1" x="41" y="51" /><rect fill="white" height="1" width="1" x="42" y="51" /><rect fill="white" height="1" width="1" x="43" y="51" /><rect fill="white" height="1" width="1" x="44" y="51" /><rect fill="white" height="1" width="1" x="45" y="51" /><rect fill="white" height="1" width="1" x="46" y="51" /><rect fill="white" height="1" width="1" x="30" y="53" /><rect fill="white" height="1" width="1" x="31" y="53" /><rect fill="white" height="1" width="1" x="32" y="53" /><rect fill="white" height="1" width="1" x="33" y="53" /><rect fill="white" height="1" width="1" x="34" y="53" /><rect fill="white" height="1" width="1" x="35" y="53" /><rect fill="white" height="1" width="1" x="36" y="53" /><rect fill="white" height="1" width="1" x="37" y="53" /><rect fill="white" height="1" width="1" x="38" y="53" /><rect fill="white" height="1" width="1" x="39" y="53" /><rect fill="white" height="1" width="1" x="40" y="53" /><rect fill="white" height="1" width="1" x="41" y="53" /><rect fill="white" height="1" width="1" x="42" y="53" /><rect fill="white" height="1" width="1" x="43" y="53" /><rect fill="white" height="1" width="1" x="44" y="53" /><rect fill="white" height="1" width="1" x="45" y="53" /><rect fill="white" height="1" width="1" x="46" y="53" /><rect fill="white" height="1" width="1" x="29" y="54" /><rect fill="white" height="1" width="1" x="30" y="54" /><rect fill="white" height="1" width="1" x="31" y="54" /><rect fill="white" height="1" width="1" x="32" y="54" /><rect fill="white" height="1" width="1" x="33" y="54" /><rect fill="white" height="1" width="1" x="34" y="54" /><rect fill="white" height="1" width="1" x="35" y="54" /><rect fill="white" height="1" width="1" x="36" y="54" /><rect fill="white" height="1" width="1" x="37" y="54" /><rect fill="white" height="1" width="1" x="38" y="54" /><rect fill="white" height="1" width="1" x="39" y="54" /><rect fill="white" height="1" width="1" x="40" y="54" /><rect fill="white" height="1" width="1" x="41" y="54" /><rect fill="white" height="1" width="1" x="42" y="54" /><rect fill="white" height="1" width="1" x="43" y="54" /><rect fill="white" height="1" width="1" x="44" y="54" /><rect fill="white" height="1" width="1" x="45" y="54" /><rect fill="white" height="1" width="1" x="46" y="54" /><rect fill="white" height="1" width="1" x="47" y="54" /><rect fill="white" height="1" width="1" x="29" y="55" /><rect fill="white" height="1" width="1" x="30" y="55" /><rect fill="white" height="1" width="1" x="31" y="55" /><rect fill="white" height="1" width="1" x="32" y="55" /><rect fill="white" height="1" width="1" x="33" y="55" /><rect fill="white" height="1" width="1" x="34" y="55" /><rect fill="white" height="1" width="1" x="35" y="55" /><rect fill="white" height="1" width="1" x="36" y="55" /><rect fill="white" height="1" width="1" x="37" y="55" /><rect fill="white" height="1" width="1" x="38" y="55" /><rect fill="white" height="1" width="1" x="39" y="55" /><rect fill="white" height="1" width="1" x="40" y="55" /><rect fill="white" height="1" width="1" x="41" y="55" /><rect fill="white" height="1" width="1" x="42" y="55" /><rect fill="white" height="1" width="1" x="43" y="55" /><rect fill="white" height="1" width="1" x="44" y="55" /><rect fill="white" height="1" width="1" x="45" y="55" /><rect fill="white" height="1" width="1" x="46" y="55" /><rect fill="white" height="1" width="1" x="47" y="55" /><rect fill="white" height="1" width="1" x="29" y="56" /><rect fill="white" height="1" width="1" x="30" y="56" /><rect fill="white" height="1" width="1" x="31" y="56" /><rect fill="white" height="1" width="1" x="32" y="56" /><rect fill="white" height="1" width="1" x="33" y="56" /><rect fill="white" height="1" width="1" x="34" y="56" /><rect fill="white" height="1" width="1" x="35" y="56" /><rect fill="white" height="1" width="1" x="36" y="56" /><rect fill="white" height="1" width="1" x="37" y="56" /><rect fill="white" height="1" width="1" x="38" y="56" /><rect fill="white" height="1" width="1" x="39" y="56" /><rect fill="white" height="1" width="1" x="40" y="56" /><rect fill="white" height="1" width="1" x="41" y="56" /><rect fill="white" height="1" width="1" x="42" y="56" /><rect fill="white" height="1" width="1" x="43" y="56" /><rect fill="white" height="1" width="1" x="44" y="56" /><rect fill="white" height="1" width="1" x="45" y="56" /><rect fill="white" height="1" width="1" x="46" y="56" /><rect fill="white" height="1" width="1" x="47" y="56" /><rect fill="white" height="1" width="1" x="29" y="57" /><rect fill="white" height="1" width="1" x="30" y="57" /><rect fill="white" height="1" width="1" x="31" y="57" /><rect fill="white" height="1" width="1" x="32" y="57" /><rect fill="white" height="1" width="1" x="33" y="57" /><rect fill="white" height="1" width="1" x="34" y="57" /><rect fill="white" height="1" width="1" x="35" y="57" /><rect fill="white" height="1" width="1" x="36" y="57" /><rect fill="white" height="1" width="1" x="37" y="57" /><rect fill="white" height="1" width="1" x="38" y="57" /><rect fill="white" height="1" width="1" x="39" y="57" /><rect fill="white" height="1" width="1" x="40" y="57" /><rect fill="white" height="1" width="1" x="41" y="57" /><rect fill="white" height="1" width="1" x="42" y="57" /><rect fill="white" height="1" width="1" x="43" y="57" /><rect fill="white" height="1" width="1" x="44" y="57" /><rect fill="white" height="1" width="1" x="45" y="57" /><rect fill="white" height="1" width="1" x="46" y="57" /><rect fill="white" height="1" width="1" x="27" y="60" /><rect fill="white" height="1" width="1" x="28" y="60" /><rect fill="white" height="1" width="1" x="29" y="60" /><rect fill="white" height="1" width="1" x="30" y="60" /><rect fill="white" height="1" width="1" x="31" y="60" /><rect fill="white" height="1" width="1" x="32" y="60" /><rect fill="white" height="1" width="1" x="33" y="60" /><rect fill="white" height="1" width="1" x="34" y="60" /><rect fill="white" height="1" width="1" x="35" y="60" /><rect fill="white" height="1" width="1" x="36" y="60" /><rect fill="white" height="1" width="1" x="37" y="60" /><rect fill="white" height="1" width="1" x="38" y="60" /><rect fill="white" height="1" width="1" x="39" y="60" /><rect fill="white" height="1" width="1" x="40" y="60" /><rect fill="white" height="1" width="1" x="41" y="60" /><rect fill="white" height="1" width="1" x="42" y="60" /><rect fill="white" height="1" width="1" x="43" y="60" /><rect fill="white" height="1" width="1" x="44" y="60" /><rect fill="white" height="1" width="1" x="45" y="60" /><rect fill="white" height="1" width="1" x="46" y="60" /><rect fill="white" height="1" width="1" x="47" y="60" /><rect fill="white" height="1" width="1" x="48" y="60" /><rect fill="white" height="1" width="1" x="27" y="61" /><rect fill="white" height="1" width="1" x="28" y="61" /><rect fill="white" height="1" width="1" x="29" y="61" /><rect fill="white" height="1" width="1" x="30" y="61" /><rect fill="white" height="1" width="1" x="31" y="61" /><rect fill="white" height="1" width="1" x="32" y="61" /><rect fill="white" height="1" width="1" x="33" y="61" /><rect fill="white" height="1" width="1" x="34" y="61" /><rect fill="white" height="1" width="1" x="35" y="61" /><rect fill="white" height="1" width="1" x="36" y="61" /><rect fill="white" height="1" width="1" x="37" y="61" /><rect fill="white" height="1" width="1" x="38" y="61" /><rect fill="white" height="1" width="1" x="39" y="61" /><rect fill="white" height="1" width="1" x="40" y="61" /><rect fill="white" height="1" width="1" x="41" y="61" /><rect fill="white" height="1" width="1" x="42" y="61" /><rect fill="white" height="1" width="1" x="43" y="61" /><rect fill="white" height="1" width="1" x="44" y="61" /><rect fill="white" height="1" width="1" x="45" y="61" /><rect fill="white" height="1" width="1" x="46" y="61" /><rect fill="white" height="1" width="1" x="47" y="61" /><rect fill="white" height="1" width="1" x="48" y="61" /></svg>